<?xml version="1.0" standalone="no"?>
<!DOCTYPE svg PUBLIC "-//W3C//DTD SVG 1.1//EN" "http://www.w3.org/Graphics/SVG/1.1/DTD/svg11.dtd" >
<svg>
<metadata>
Created by FontForge 20090622 at Fri Mar  6 09:47:37 2020
 By deploy user
Copyright (c) 2014 by Jan Henrik Arnold. All rights reserved. |DCNT
</metadata>
<defs>
<font id="TimesNow-ExtraLightItalic" horiz-adv-x="500" >
  <font-face 
    font-family="Times Now ExtraLight"
    font-weight="250"
    font-style="italic"
    font-stretch="normal"
    units-per-em="1000"
    panose-1="2 0 2 3 7 4 5 13 4 3"
    ascent="763"
    descent="-237"
    x-height="430"
    cap-height="662"
    bbox="-170 -217 1041 868"
    underline-thickness="50"
    underline-position="-50"
    slope="-16"
    unicode-range="U+000D-U+FB02"
  />
<missing-glyph horiz-adv-x="450" 
d="M260 380l-61 282h285zM495 612l-162 -563l-62 281zM232 282l61 -282h-284zM220 330l-223 -281l161 563z" />
    <glyph glyph-name="fi" unicode="fi" horiz-adv-x="512" 
d="M365 407h-163l-75 -285q-39 -145 -87 -230q-58 -108 -148 -108q-21 0 -41.5 13t-20.5 33q0 15 11.5 26.5t27.5 11.5q11 0 19 -7.5t8 -17.5q0 -9 -8 -19t-8 -11q0 -11 18 -11q62 0 99 63q36 60 77 214l87 328h-100l5 23q58 0 78 14q21 15 52 76q52 102 102 138t111 36
q41 0 72 -21q32 -20 32 -48q0 -40 -37 -40q-13 0 -23 8.5t-10 22.5q0 8 7 22.5t7 17.5q0 9 -13 15t-33 6q-71 0 -119 -58t-85 -189h177l79 12h2l-102 -366q-7 -20 -7 -35q0 -16 17 -16t44.5 23.5t52.5 58.5l10 -7q-27 -41 -65 -77q-38 -35 -70 -35q-34 0 -34 43q0 15 15 71
l52 189q22 78 22 86q0 30 -35 30z" />
    <glyph glyph-name="fl" unicode="fl" horiz-adv-x="509" 
d="M421 407h-219l-75 -285q-29 -110 -64 -185q-65 -147 -171 -153q-21 0 -41.5 13t-20.5 33q0 16 11.5 27t27.5 11q11 0 19 -7.5t8 -17.5q0 -9 -8 -19t-8 -11q0 -11 18 -11q60 0 98 63t78 214l87 328h-102l7 23q57 0 79 14q21 15 51 76q36 71 80 110t76.5 51.5t69.5 12.5
q44 0 70 -25l50 25h3l-173 -619q-7 -20 -7 -34q0 -16 17 -16q36 0 97 82l10 -7q-25 -38 -65 -76q-38 -36 -70 -36q-34 0 -34 43q0 15 15 71zM208 430h219l47 166q-23 0 -23 21q0 6 9 20.5t9 18.5q0 7 -14.5 14t-32.5 7q-68 0 -124 -62t-90 -185z" />
    <glyph glyph-name=".notdef" horiz-adv-x="450" 
d="M260 380l-61 282h285zM495 612l-162 -563l-62 281zM232 282l61 -282h-284zM220 330l-223 -281l161 563z" />
    <glyph glyph-name=".null" horiz-adv-x="0" 
 />
    <glyph glyph-name="nonmarkingreturn" horiz-adv-x="333" 
 />
    <glyph glyph-name="NULL" horiz-adv-x="0" 
 />
    <glyph glyph-name="NULL" horiz-adv-x="0" 
 />
    <glyph glyph-name="CR" unicode="&#xd;" horiz-adv-x="250" 
 />
    <glyph glyph-name="space" unicode=" " horiz-adv-x="250" 
 />
    <glyph glyph-name="exclam" unicode="!" horiz-adv-x="333" 
d="M240 418l-86 -259h-13l47 216q35 154 44 199q12 58 24.5 80.5t30.5 22.5q22 0 22 -30q0 -33 -69 -229zM120 -12q-23 -1 -32 17.5t0.5 37t31.5 17.5q15 0 25.5 -10.5t10.5 -25.5t-10.5 -25.5t-25.5 -10.5z" />
    <glyph glyph-name="quotedbl" unicode="&#x22;" horiz-adv-x="420" 
d="M161 392h-16l23 168q9 64 24 90q15 27 41 27t26 -32q0 -19 -30 -96q-30 -76 -68 -157zM337 392h-16l23 168q9 64 24 90q15 27 41 27t26 -32q0 -19 -30 -96q-30 -76 -68 -157z" />
    <glyph glyph-name="numbersign" unicode="#" 
d="M116 -15h-25l47 233h-81v24h86l37 182h-126v24h131l48 229h25l-48 -229h181l47 229h23l-45 -229h81v-24h-87l-36 -182h123v-24h-128l-47 -233h-26l48 233h-180zM205 424l-37 -182h181l37 182h-181z" />
    <glyph glyph-name="dollar" unicode="$" 
d="M288 391l73 249q-20 5 -39 5q-48 0 -83 -35t-35 -83q0 -73 84 -136zM285 322l-91 -314h21q72 0 121 43q50 44 50 110q0 43 -21 75t-80 86zM376 635l-74 -255q67 -55 96.5 -98.5t29.5 -91.5q0 -84 -55 -142q-54 -58 -164 -58h-20l-16 -56h-17l17 58q-74 13 -127 54l40 139
h12q-36 -147 80 -176l93 324q-52 41 -84 86.5t-32 86.5q0 66 48 113q49 46 115 46q22 0 49 -4l11 39h17l-12 -43q61 -17 101 -55l-32 -118h-12q9 50 -7 90.5t-57 60.5z" />
    <glyph glyph-name="percent" unicode="%" horiz-adv-x="833" 
d="M708 342q44 0 70.5 -33.5t26.5 -93.5q0 -93 -54 -160t-116 -67q-47 0 -74 35.5t-27 91.5q0 76 53 152q53 75 121 75zM712 328q-49 0 -95 -91q-47 -91 -47 -169q0 -30 15.5 -48t42.5 -18q50 0 95 82q46 82 46 172q0 34 -15 53t-42 19zM253 674q44 0 70.5 -34t26.5 -94
q0 -92 -54 -159t-116 -67q-47 0 -74 35.5t-27 91.5q0 79 53 153t121 74zM257 660q-49 0 -95 -91q-47 -91 -47 -169q0 -31 15.5 -48.5t42.5 -17.5q50 0 95 82q46 82 46 172q0 34 -15 53t-42 19zM781 677h32l-692 -692h-32z" />
    <glyph glyph-name="ampersand" unicode="&#x26;" horiz-adv-x="778" 
d="M385 412q63 18 112 62q49 45 49 104q0 35 -19 55t-51 20q-54 0 -78 -45t-24 -102q0 -48 11 -94zM338 380q-105 -34 -163.5 -85.5t-58.5 -118.5q0 -153 163 -153q31 0 62 12q43 16 101 58q-69 110 -104 287zM525 333v11h195v-11q-88 -8 -134 -92q-35 -63 -91 -124
q23 -37 60 -69q37 -31 79 -31q21 0 43.5 12t35.5 31h18q-53 -75 -139 -75q-43 0 -73 21.5t-66 71.5q-115 -93 -219 -93q-67 0 -116 44q-48 45 -48 122q0 171 266 245q-5 38 -5 72q0 107 46 157q46 52 112 52q43 0 71 -25.5t28 -70.5q0 -47 -33 -88q-53 -64 -166 -97
q45 -172 97 -262q32 32 61 85q31 50 28 82t-50 32z" />
    <glyph glyph-name="quotesingle" unicode="'" horiz-adv-x="214" 
d="M149 392h-16l23 168q9 64 24 90q15 27 41 27t26 -32q0 -19 -30 -96q-30 -76 -68 -157z" />
    <glyph glyph-name="parenleft" unicode="(" horiz-adv-x="333" 
d="M200 -209l-12 -7q-86 183 -86 324q0 125 47 236q46 109 119 190q74 82 178 158l9 -12q-87 -64 -151 -155q-67 -94 -100 -186q-67 -185 -67 -319q0 -85 63 -229z" />
    <glyph glyph-name="parenright" unicode=")" horiz-adv-x="333" 
d="M147 687l13 6q86 -167 86 -324q0 -181 -91 -320q-90 -139 -254 -264l-8 12q85 63 151.5 151.5t100.5 183.5q67 177 67 328q0 82 -65 227z" />
    <glyph glyph-name="asterisk" unicode="*" 
d="M283 492q-28 16 -69 28q-51 16 -73 29t-22 32q0 10 7.5 16t18.5 6q19 0 42 -17q20 -15 50 -43q30 -27 52 -40q0 37 -10 83q-9 50 -9 73q0 16 7 26.5t19 10.5q25 0 25 -37q0 -23 -11 -75q-10 -46 -10 -81q21 9 77 55q53 44 72 44q25 0 25 -22q0 -20 -29 -35
q-33 -16 -74 -28q-40 -12 -64 -25q27 -16 73 -31q49 -16 69 -28.5t20 -31.5q0 -9 -7.5 -15.5t-16.5 -6.5q-23 0 -42 15q-26 20 -49 43q-28 27 -53 44q0 -43 10 -89t10 -68q0 -34 -26 -34q-25 0 -25 34q0 24 9 69q10 43 10 88q-28 -17 -66.5 -51t-41.5 -36q-17 -12 -38 -12
q-22 0 -22 21q0 19 21 31t66 27q48 16 75 31z" />
    <glyph glyph-name="plus" unicode="+" horiz-adv-x="706" 
d="M395 69h-25v252h-250v24h250v250h25v-250h250v-24h-250v-252z" />
    <glyph glyph-name="comma" unicode="," horiz-adv-x="250" 
d="M-2 -123l-5 10q22 10 49 38q26 26 26 51q0 8 -12.5 25t-12.5 27q-2 26 24 34q27 8 42 -14q7 -11 6 -28q0 -40 -36 -82q-34 -43 -81 -61z" />
    <glyph glyph-name="hyphen" unicode="-" horiz-adv-x="333" 
d="M41 236h253l-9 -37h-253z" />
    <glyph glyph-name="period" unicode="." horiz-adv-x="250" 
d="M83 -12q-23 -1 -32 17.5t0.5 37t31.5 17.5q15 0 25.5 -10.5t10.5 -25.5t-10.5 -25.5t-25.5 -10.5z" />
    <glyph glyph-name="slash" unicode="/" horiz-adv-x="278" 
d="M347 694h24l-372 -709h-27z" />
    <glyph glyph-name="zero" unicode="0" 
d="M212 -12q-64 0 -98.5 53t-34.5 156q0 119 41 233q40 110 103 178q63 66 126 66q54 0 89.5 -56.5t35.5 -159.5q0 -126 -43 -237q-42 -109 -101.5 -171t-117.5 -62zM212 3q46 0 90 63q45 67 71 152q26 86 43 173q17 88 17 136q0 60 -23.5 96t-63.5 36q-61 0 -117 -98
q-53 -96 -82 -219q-28 -119 -28 -218q0 -55 24.5 -88t68.5 -33z" />
    <glyph glyph-name="one" unicode="1" 
d="M387 674h12l-153 -538q-19 -66 -19 -79q0 -44 91 -44l-3 -13h-252l3 13q59 0 85 17q27 17 43 75l124 432q9 31 9 47q0 39 -46 39q-13 0 -38 -5l-4 13z" />
    <glyph glyph-name="two" unicode="2" 
d="M389 124l-50 -124h-318v15l226 217q160 154 160 251q0 63 -35.5 101t-92.5 38q-38 0 -71 -22.5t-54 -60.5l-9 5q24 59 69 94.5t102 35.5q56 0 96 -46q41 -46 41 -107q0 -62 -32 -121q-31 -56 -72 -94l-262 -253h158q53 0 82.5 15t49.5 56h12z" />
    <glyph glyph-name="three" unicode="3" 
d="M153 363v11q50 4 103 23q52 20 91 56q40 37 40 83q0 98 -97 98q-61 0 -105 -76l-11 3q22 52 61.5 82.5t91.5 30.5q47 0 77.5 -33.5t30.5 -87.5q0 -56 -47 -100q-45 -42 -109 -64v-2q52 -15 83 -56t31 -93q0 -104 -76 -177t-178 -73q-35 0 -68 13q-35 14 -35 41
q0 15 12 25.5t28 10.5q19 0 63 -26q46 -26 81 -26q45 0 81 51q37 50 37 116q0 82 -49 124t-136 46z" />
    <glyph glyph-name="four" unicode="4" horiz-adv-x="497" 
d="M449 662h26l-134 -448h91l-10 -35h-92l-57 -191h-46l58 191h-249l12 41zM402 575l-327 -361h220l110 361h-3z" />
    <glyph glyph-name="five" unicode="5" 
d="M165 435l102 227h209l-16 -61l-198 -1l-53 -116q92 -12 141 -61t49 -133q0 -122 -86 -213q-86 -89 -187 -89q-36 0 -62.5 13.5t-26.5 38.5q0 17 11 28.5t27 11.5q24 0 52 -24q31 -23 52 -23q67 0 120 60q53 61 53 140q0 93 -48.5 145t-138.5 57z" />
    <glyph glyph-name="six" unicode="6" 
d="M525 674v-10q-90 -17 -176 -91q-87 -73 -134 -160l2 -2q41 21 84 21q67 0 104 -45.5t37 -117.5q0 -118 -71 -200q-71 -81 -145 -81t-110 51.5t-36 139.5q0 117 63 230t166 186t216 79zM193 377q-21 -44 -37 -82q-14 -33 -27 -80q-13 -46 -13 -86q0 -59 28 -94t77 -35
q59 0 113 85q55 85 55 197q0 60 -30 94t-85 34q-36 0 -81 -33z" />
    <glyph glyph-name="seven" unicode="7" 
d="M128 526l71 136h319v-18l-372 -655l-22 13l344 606h-175q-56 0 -90 -17.5t-60 -64.5h-15z" />
    <glyph glyph-name="eight" unicode="8" 
d="M317 370q52 -63 75 -106t23 -83q0 -55 -44 -120q-22 -32 -64 -52.5t-92 -20.5q-74 0 -120 49q-45 49 -45 112q0 67 51.5 123.5t150.5 92.5q-26 29 -39 48q-44 58 -44 106q0 69 48 112q47 43 113 43q64 0 107 -40q44 -39 44 -92q0 -62 -44.5 -106t-119.5 -66zM307 382
q61 18 96 61t35 99q0 55 -30 86.5t-82 31.5q-44 0 -75 -33q-32 -34 -32 -76q0 -29 14 -62q11 -27 25 -48l41 -49q3 -5 8 -10zM263 353q-71 -24 -121 -86q-49 -61 -49 -136q0 -59 35 -93.5t95 -34.5q55 0 99 41q43 42 43 104q0 55 -22 95q-25 45 -80 110z" />
    <glyph glyph-name="nine" unicode="9" 
d="M30 -12v15q87 14 177 89t140 162l-2 2q-41 -29 -96 -29q-67 0 -103.5 45.5t-36.5 119.5q0 103 67 192q68 90 155 90q76 0 109 -55q34 -53 34 -135q0 -118 -60 -231q-59 -110 -164 -185q-102 -72 -220 -80zM366 288q70 130 70 240q0 62 -27 97.5t-77 35.5q-61 0 -116 -82
q-54 -81 -54 -200q0 -51 30 -91q31 -40 85 -40q39 0 89 40z" />
    <glyph glyph-name="colon" unicode=":" horiz-adv-x="333" 
d="M109 -12q-23 -1 -32 17.5t0.5 37t31.5 17.5q15 0 25.5 -10.5t10.5 -25.5t-10.5 -25.5t-25.5 -10.5zM176 404q0 15 10.5 25.5t25.5 10.5t25.5 -10.5t10.5 -25.5q1 -22 -17.5 -31.5t-37 -0.5t-17.5 32z" />
    <glyph glyph-name="semicolon" unicode=";" horiz-adv-x="333" 
d="M212 370q-22 0 -31 18t0 36t31 18q15 0 25.5 -10.5t10.5 -25.5t-10.5 -25.5t-25.5 -10.5zM26 -123l-5 10q22 10 49 38q26 26 26 51q0 8 -12.5 25t-12.5 27q-2 26 24 34q27 8 42 -14q7 -11 6 -28q0 -40 -36 -82q-34 -43 -81 -61z" />
    <glyph glyph-name="less" unicode="&#x3c;" horiz-adv-x="706" 
d="M125 320v25l525 228v-25l-493 -215l493 -216v-26z" />
    <glyph glyph-name="equal" unicode="=" horiz-adv-x="706" 
d="M113 400v24h525v-24h-525zM113 241v24h525v-24h-525z" />
    <glyph glyph-name="greater" unicode="&#x3e;" horiz-adv-x="706" 
d="M628 344v-25l-525 -228v25l493 215l-493 216v26z" />
    <glyph glyph-name="question" unicode="?" 
d="M172 161h-13q4 94 86 181l33 34l35.5 37.5t29 34.5t27 38.5t15.5 36t7 39.5q0 43 -34 71q-35 29 -79 29q-33 0 -59 -14.5t-26 -34.5q0 -6 8 -27.5t8 -29.5q0 -15 -10.5 -24t-27.5 -9q-15 0 -25.5 11.5t-10.5 26.5q0 47 42 81q44 35 112 35q71 0 112 -38t41 -99
q0 -40 -25.5 -76t-63 -66l-76 -61.5t-69 -77t-37.5 -98.5zM144 -12q-23 -1 -32 17.5t0.5 37t31.5 17.5q15 0 25.5 -10.5t10.5 -25.5t-10.5 -25.5t-25.5 -10.5z" />
    <glyph glyph-name="at" unicode="@" horiz-adv-x="920" 
d="M590 459l52 7l-83 -287q-19 -56 -19 -91q0 -47 51 -47q81 0 150 94t69 230q0 138 -92 224q-92 87 -232 87q-91 0 -174.5 -40t-142.5 -108q-58 -67 -91 -152t-33 -172q0 -170 115 -285t285 -115q152 0 256 79t148 201h19q-41 -135 -159 -217q-119 -83 -262 -83
q-185 0 -307 123q-121 122 -121 308q0 128 59 238q59 111 165 175q107 66 237 66q155 0 252 -91q98 -92 98 -244q0 -115 -66 -224q-32 -54 -86 -87t-117 -33q-68 0 -68 67q0 27 8 67l-2 2q-37 -51 -88 -93q-50 -43 -100 -43q-39 0 -60.5 29t-21.5 82q0 75 40 155
q41 81 102 135t118 54q31 0 55 -19t27 -48h2zM557 377q0 35 -18 55.5t-48 20.5q-45 0 -94 -58q-50 -57 -81 -130q-31 -72 -31 -121q0 -87 57 -87q31 0 69 28.5t71 74.5t54 105t21 112z" />
    <glyph glyph-name="A" unicode="A" horiz-adv-x="619" 
d="M406 119l9 105h-208l-71 -98l-13 -20q-22 -32 -22 -52q0 -41 53 -41l-5 -13h-182l4 13q50 6 80 40l19 22l18 25q11 16 15 20l403 557h4l-52 -522q-5 -70 -5 -82q0 -35 21 -47.5t69 -12.5l-5 -13h-234l4 13q65 0 81 31q13 27 17 75zM445 553h-3l-217 -305h192z" />
    <glyph glyph-name="B" unicode="B" horiz-adv-x="558" 
d="M107 119l120 407q17 59 17 85q-3 24 -23.5 31.5t-63.5 7.5l3 12h223q83 0 132 -39t49 -100q0 -70 -55 -118t-119 -55v-2q51 -12 83.5 -50t32.5 -88q0 -88 -75 -150q-73 -60 -179 -60h-270l4 13q57 0 78 18q22 19 43 88zM275 339h-54l-92 -306q45 -8 95 -8q100 0 161 48
q63 48 63 131q0 66 -47.5 100.5t-125.5 34.5zM308 634l-79 -270h67q98 0 155.5 43.5t57.5 115.5q0 54 -36.5 84t-105.5 30q-33 0 -59 -3z" />
    <glyph glyph-name="C" unicode="C" horiz-adv-x="659" 
d="M677 677h12l-49 -214h-12q13 102 -33.5 147t-112.5 45q-75 0 -142.5 -39t-111.5 -103q-90 -133 -90 -275q0 -103 59 -163t161 -60q133 0 229 136h18q-100 -166 -276 -166q-110 0 -179 71q-69 72 -69 193q0 111 55 209t149 159q95 60 199 60q44 0 104 -23q24 -10 39 -10
q26 0 50 33z" />
    <glyph glyph-name="D" unicode="D" horiz-adv-x="700" 
d="M105 95l119 419q25 84 12 109.5t-80 25.5l4 13h230q143 0 219 -69t76 -207q0 -148 -106 -263q-52 -57 -136.5 -90t-186.5 -33h-273l4 13q51 0 77.5 17.5t40.5 64.5zM305 636l-144 -505q-19 -66 -19 -79q0 -20 27 -26q20 -3 54 -3h10q203 0 302 115q92 109 92 263
q0 238 -255 238q-22 0 -67 -3z" />
    <glyph glyph-name="E" unicode="E" horiz-adv-x="599" 
d="M100 96l119 418q17 59 17 85q0 27 -19.5 38.5t-62.5 11.5l4 13h468l-42 -157h-12q11 71 -16 102t-102 31h-154l-79 -279h98q75 0 106 18q33 19 58 82h12l-68 -241h-12q12 62 -5 89.5t-67 27.5h-129l-57 -202q-16 -54 -16 -74q0 -22 19 -28.5t73 -6.5q136 0 189 28
q53 27 110 130h12l-61 -182h-505l4 13q51 0 77.5 18t40.5 65z" />
    <glyph glyph-name="F" unicode="F" horiz-adv-x="576" 
d="M485 637h-183l-79 -278h93q70 0 93 9q41 17 71 85h12l-65 -231h-12q16 66 -4.5 89.5t-92.5 23.5h-102l-57 -201q-14 -51 -14 -71q0 -27 20.5 -38.5t65.5 -11.5l-4 -13h-247l4 13q54 0 79.5 19t38.5 64l119 418q17 59 17 85q0 50 -84 50l4 13h507l-48 -164h-12
q9 81 -15 110q-23 29 -105 29z" />
    <glyph glyph-name="G" unicode="G" horiz-adv-x="676" 
d="M70 258q0 151 105 282q52 63 129.5 100t165.5 37q60 0 124 -26q28 -12 36 -12q14 0 22.5 8t20.5 30h13l-51 -208h-12q17 92 -24.5 137t-126.5 45q-62 0 -117.5 -25.5t-96 -67t-70.5 -94.5t-45 -109t-15 -108q0 -100 56 -168q55 -66 157 -66q32 0 71 9t59 21l41 141
q17 54 17 85q0 28 -23 39t-83 11l4 13h274l-4 -13q-58 0 -85 -19t-40 -67l-59 -209q-53 -21 -88 -30q-36 -9 -85 -9q-68 0 -123 25t-87 67q-60 83 -60 181z" />
    <glyph glyph-name="H" unicode="H" horiz-adv-x="722" 
d="M230 0h-247l4 13q52 0 78.5 19t39.5 64l119 418q17 59 17 85q0 27 -19 38.5t-66 11.5l4 13h247l-4 -13q-52 0 -78.5 -19.5t-40.5 -66.5l-58 -203h345l44 154q17 59 17 85t-20 38t-65 12l4 13h247l-4 -13q-53 0 -79 -19t-40 -67l-122 -429q-14 -51 -14 -71
q0 -27 19.5 -38.5t66.5 -11.5l-4 -13h-247l4 13q53 0 79.5 19t38.5 64l69 243h-345l-58 -205q-14 -51 -14 -71q0 -27 20 -38.5t66 -11.5z" />
    <glyph glyph-name="I" unicode="I" horiz-adv-x="331" 
d="M230 0h-247l4 13q52 0 78.5 19t39.5 64l119 418q17 53 17 85q0 26 -19.5 38t-65.5 12l4 13h247l-4 -13q-54 0 -79.5 -19t-39.5 -67l-122 -429q-14 -51 -14 -71q0 -27 19.5 -38.5t66.5 -11.5z" />
    <glyph glyph-name="J" unicode="J" horiz-adv-x="439" 
d="M275 249l76 265q25 84 12 109.5t-80 25.5l4 13h247l-4 -13q-54 0 -79 -19t-40 -67l-100 -352q-64 -226 -234 -226q-49 0 -79.5 24t-30.5 60q0 23 15 40t37 17q17 0 29.5 -11t12.5 -27q0 -11 -12.5 -28.5t-12.5 -20.5q0 -13 13 -23t33 -10q66 0 108 52q43 52 85 191z" />
    <glyph glyph-name="K" unicode="K" horiz-adv-x="665" 
d="M590 582l-319 -207l180 -242q49 -66 84 -94q37 -26 94 -26l-3 -13h-272l4 13q71 0 71 49q0 18 -17 47q-5 9 -10 14q-9 16 -20 27l-156 213l-65 -229q-14 -51 -14 -71q0 -50 86 -50l-4 -13h-247l4 13q52 0 78.5 19t39.5 64l119 418q17 59 17 87q0 48 -85 48l4 13h249
l-4 -13q-54 0 -80.5 -19t-40.5 -67l-53 -187l1 -1l244 156q48 31 68.5 51t20.5 38q0 29 -42 29l4 13h206l-3 -13q-47 -10 -70 -24q-5 -2 -33 -19l-18 -12q-14 -10 -18 -12z" />
    <glyph glyph-name="L" unicode="L" horiz-adv-x="556" 
d="M284 563l-122 -429q-14 -48 -14 -71q0 -21 18 -28t76 -7q126 0 173 27q48 28 97 131h12l-63 -186h-478l4 13q53 0 79 19t39 64l119 418q17 59 17 85q0 27 -19 38.5t-66 11.5l4 13h250l-4 -13q-56 0 -82 -18.5t-40 -67.5z" />
    <glyph glyph-name="M" unicode="M" horiz-adv-x="837" 
d="M157 662h135l64 -582l430 582h128l-4 -13q-51 0 -77.5 -19t-40.5 -67l-121 -425q-15 -54 -15 -75q0 -50 77 -50l-4 -13h-245l4 13q54 -2 83.5 18t41.5 65l134 472l-2 2l-421 -570h-7l-62 576h-2l-126 -442q-14 -51 -14 -70q0 -51 76 -51l-4 -13h-203l3 13q49 0 72 20
q24 22 40 79l143 501q-27 36 -86 36z" />
    <glyph glyph-name="N" unicode="N" horiz-adv-x="673" 
d="M142 662h132l217 -580h2l122 432q17 62 17 85q0 27 -17.5 38.5t-60.5 11.5l4 13h208l-4 -14q-50 0 -72 -19q-23 -20 -39 -74l-164 -570h-8l-215 572h-2l-121 -423q-14 -51 -14 -71q0 -50 76 -50l-4 -13h-200l3 13q43 0 67.5 19.5t36.5 62.5l142 497q-20 31 -45.5 43
t-65.5 12z" />
    <glyph glyph-name="O" unicode="O" horiz-adv-x="682" 
d="M469 677q94 0 150 -65q57 -64 57 -165q0 -112 -69 -234q-34 -61 -83 -113t-117.5 -83.5t-142.5 -31.5q-94 0 -149 66q-55 67 -55 165q0 72 31 152.5t83 149.5q52 68 131 114q80 45 164 45zM460 658q-63 0 -126 -39.5t-111 -106.5q-47 -65 -75 -149q-29 -85 -29 -167
q0 -93 40.5 -142.5t117.5 -49.5q79 0 158 63q79 64 130 173q52 108 52 228q0 92 -41.5 141t-115.5 49z" />
    <glyph glyph-name="P" unicode="P" horiz-adv-x="549" 
d="M304 631l-80 -278q71 -18 107 -18q51 0 90 16t60 38t34.5 50t17.5 47.5t4 34.5q0 55 -38 87t-105 32q-40 0 -90 -9zM218 332l-56 -198q-14 -44 -14 -71q0 -50 86 -50l-4 -13h-247l4 13q53 0 79 19t39 64l119 418q17 59 17 85q0 50 -81 50l4 13h249q86 0 136 -42t50 -109
q0 -89 -75 -146q-74 -56 -167 -56q-53 0 -139 23z" />
    <glyph glyph-name="Q" unicode="Q" horiz-adv-x="694" 
d="M256 -15l-138 -114l2 -2q30 5 73 5q54 0 130 -19q96 -21 128 -21q101 0 176 97l9 -6q-43 -67 -116 -104t-148 -37q-36 0 -136 25q-95 21 -137 21q-34 0 -53 -10l-9 11l194 156q-81 15 -126 76.5t-45 152.5q0 72 31 152.5t83 149.5q52 68 131 114q80 45 164 45
q94 0 150 -65q57 -65 57 -164q0 -71 -29 -150.5t-81 -150.5q-50 -69 -133 -116q-82 -46 -177 -46zM459 658q-62 0 -125 -39.5t-111 -106.5q-47 -65 -75 -149q-29 -85 -29 -167q0 -93 40.5 -142.5t117.5 -49.5q58 0 120 38q129 81 189 250q31 86 31 177q0 90 -41 139.5
t-117 49.5z" />
    <glyph glyph-name="R" unicode="R" horiz-adv-x="617" 
d="M562 0h-128l-108 325h-23q-45 0 -83 13l-58 -204q-14 -56 -14 -71q0 -26 19.5 -38t66.5 -12l-4 -13h-247l4 13q53 0 79.5 19.5t38.5 63.5l119 418q17 59 17 85q0 50 -82 50l4 13h213q88 0 134 -38.5t46 -108.5q0 -73 -55 -124t-130 -61l63 -186q29 -85 52 -108
q26 -23 81 -23zM305 637l-80 -280q36 -10 76 -10q90 0 142 49q53 50 53 118q0 126 -152 126q-21 0 -39 -3z" />
    <glyph glyph-name="S" unicode="S" 
d="M21 -15h-12l55 246h12q-19 -96 22 -160q40 -63 134 -63q65 0 107 42q43 43 43 108q0 68 -79 142l-24 23l-26.5 25.5l-23.5 24.5t-23.5 27.5l-18.5 26.5t-17 30t-9 29.5t-4 32.5q0 62 48 110t117 48q46 0 95 -21q51 -21 56 -21q32 0 53 42h12l-50 -220h-12q19 80 -23 139
q-40 58 -127 58q-57 0 -92.5 -34t-35.5 -84q0 -63 80 -138q79 -70 106 -105q43 -56 43 -112q0 -83 -54 -140q-53 -56 -136 -56q-47 0 -99 21q-51 21 -68 21q-32 0 -49 -42z" />
    <glyph glyph-name="T" unicode="T" horiz-adv-x="556" 
d="M104 488l47 174h496l-53 -174h-13q21 77 3 112.5t-97 35.5h-75l-143 -502q-14 -50 -14 -72q0 -49 83 -49l-4 -13h-241l4 13q50 0 75.5 18.5t39.5 64.5l154 540h-20q-100 0 -152 -30q-51 -29 -77 -118h-13z" />
    <glyph glyph-name="U" unicode="U" horiz-adv-x="722" 
d="M281 563l-77 -272q-21 -73 -21 -120q0 -72 49 -115t124 -43q104 0 157 69q53 68 100 228l59 208q16 55 16 81q0 50 -73 50l4 13h202l-4 -13q-55 -1 -76 -27q-22 -25 -44 -102l-81 -275q-40 -136 -106 -198t-171 -62q-95 0 -148 57q-51 57 -51 131q0 39 6 72q9 41 34 126
q58 196 58 228q0 29 -22 39.5t-77 10.5l4 13h273l-4 -13q-66 0 -92 -19q-26 -20 -39 -67z" />
    <glyph glyph-name="V" unicode="V" horiz-adv-x="609" 
d="M265 543l-49 -441l2 -2l287 397q65 91 65 115q0 37 -56 37l4 13h199l-5 -13q-44 0 -84 -37q-40 -36 -106 -127l-360 -500h-4l61 535q6 50 6 80q0 49 -93 49l3 13h243l-3 -13q-64 0 -84 -20q-18 -18 -26 -86z" />
    <glyph glyph-name="W" unicode="W" horiz-adv-x="830" 
d="M199 112l2 -2l302 473v16q4 29 -36 45q-5 2 -24 4q-11 1 -20 1h-20l5 13h256l-5 -13q-65 0 -87 -17q-20 -16 -28 -76l-48 -438l2 -2l236 364l13 20l18 28q39 60 35 79q0 21 -17 31.5t-43 10.5l5 13h192l-5 -13q-34 6 -82 -40q-4 -4 -27 -34q-25 -36 -26 -37l-31 -49
l-324 -504h-6l60 542l-2 2l-347 -544h-7l60 528q5 68 5 79q0 57 -78 57l5 13h233l-5 -13q-62 0 -83 -23q-20 -22 -28 -78z" />
    <glyph glyph-name="X" unicode="X" horiz-adv-x="629" 
d="M510 649l5 13h211l-2 -13q-52 -4 -94 -37q-27 -22 -33 -28q-6 -5 -34 -33l-207 -210l54 -192q17 -70 46.5 -103t87.5 -33l-4 -13h-237l3 13q44 0 62 9t18 33q0 16 -7 40l-56 211l-186 -190l-9 -10q-17 -17 -26 -30q-14 -19 -14 -30q0 -33 58 -33l-4 -13h-211l5 13
q67 0 167 103l212 215l-55 198q-10 43 -23 68q-22 52 -84 52l3 13h213l-5 -13q-41 0 -58 -9.5t-17 -30.5q0 -13 14 -66l46 -176l139 139q79 79 79 114q0 29 -57 29z" />
    <glyph glyph-name="Y" unicode="Y" horiz-adv-x="581" 
d="M307 520l53 -177l141 177q59 76 59 101q0 28 -69 28l4 13h194l-5 -13q-35 0 -63 -22q-28 -23 -73 -80l-183 -232l-51 -181q-14 -48 -14 -71q0 -27 21 -38.5t70 -11.5l-4 -13h-263l4 13q60 0 87.5 17.5t41.5 65.5l66 232l-75 241q-13 42 -35.5 61t-61.5 19l3 13h231
l-4 -13q-48 0 -70 -11t-22 -38q0 -22 18 -80z" />
    <glyph glyph-name="Z" unicode="Z" horiz-adv-x="551" 
d="M114 514l47 148h437v-14l-522 -624h105q108 0 169 13q55 12 89.5 42.5t63.5 92.5h13l-56 -172h-457v10l531 628h-171q-82 0 -141 -20q-68 -23 -96 -104h-12z" />
    <glyph glyph-name="bracketleft" unicode="[" horiz-adv-x="389" 
d="M253 -199h-193l257 876h193l-7 -25h-159l-242 -826h157z" />
    <glyph glyph-name="backslash" unicode="\" horiz-adv-x="278" 
d="M112 694h22l90 -709h-23z" />
    <glyph glyph-name="bracketright" unicode="]" horiz-adv-x="389" 
d="M158 677h191l-257 -876h-191l9 26h158l241 824h-159z" />
    <glyph glyph-name="asciicircum" unicode="^" horiz-adv-x="422" 
d="M226 676h18l207 -352h-31l-185 314l-186 -314h-31z" />
    <glyph glyph-name="underscore" unicode="_" 
d="M508 -81v-24h-516v24h516z" />
    <glyph glyph-name="grave" unicode="`" horiz-adv-x="333" 
d="M174 684h81l61 -167h-11z" />
    <glyph glyph-name="a" unicode="a" horiz-adv-x="497" 
d="M399 431l44 10l-102 -358q-8 -29 -8 -44q0 -16 16 -16q30 0 82 79l10 -6q-65 -108 -123 -108q-29 0 -29 35q0 31 25 116l-2 2q-98 -153 -195 -153q-39 0 -61.5 30.5t-22.5 82.5q0 75 41 157q42 81 102 132q61 52 115 52q36 0 57 -23.5t24 -67.5h2zM354 336q0 90 -64 90
q-45 0 -94 -52q-50 -52 -84 -126q-33 -74 -33 -133q0 -41 17 -64t48 -23q24 0 59.5 23.5t68.5 62.5q35 41 58.5 101t23.5 121z" />
    <glyph glyph-name="b" unicode="b" horiz-adv-x="489" 
d="M271 694h2l-101 -346l2 -2q74 96 171 96q46 0 72 -34.5t26 -97.5q0 -72 -36 -147q-35 -74 -98 -125q-64 -50 -132 -50q-63 0 -137 54l148 501q21 71 21 87q0 27 -47 27q-10 0 -30 -4v14zM145 258l-64 -216q47 -37 100 -37q77 0 146 93q70 92 70 201q0 106 -78 106
q-63 0 -110 -44t-64 -103z" />
    <glyph glyph-name="c" unicode="c" horiz-adv-x="450" 
d="M376 114l9 -8q-97 -118 -214 -118q-62 0 -95 38t-33 107q-2 71 38.5 144.5t106 120t131.5 44.5q45 0 72.5 -21.5t27.5 -54.5q0 -27 -13 -44t-30 -17q-13 0 -21.5 8.5t-8.5 21.5q0 18 16 31q16 15 16 24q0 15 -14 25t-38 10q-63 0 -121 -50q-57 -49 -87 -114
q-46 -100 -21.5 -170t111.5 -70q81 0 168 93z" />
    <glyph glyph-name="d" unicode="d" horiz-adv-x="497" 
d="M30 115q0 66 42 142q44 80 106 131q63 54 117 54q65 0 88 -72l50 173q21 75 21 87q0 15 -10.5 21t-36.5 6q-13 0 -30 -4v14l138 27h3l-173 -593q-11 -46 -11 -50q0 -19 12 -19q20 0 87 79l10 -7l-24 -31q-16 -23 -31 -41q-37 -44 -75 -44q-28 0 -28 44q0 38 41 158l-2 2
q-28 -51 -54 -88q-28 -41 -73 -78q-46 -38 -87 -38q-37 0 -58.5 33t-21.5 94zM76 121q0 -93 61 -93q41 0 94 60q54 61 90 136q37 75 37 123q0 36 -18 57.5t-48 21.5q-72 0 -144 -107t-72 -198z" />
    <glyph glyph-name="e" unicode="e" horiz-adv-x="425" 
d="M366 113l8 -10q-116 -115 -222 -115q-52 0 -88 41.5t-36 104.5q-3 68 40 142t110 121.5t128 44.5q91 0 91 -71q0 -51 -49 -91q-89 -75 -271 -94q-5 -33 -5 -43q0 -56 29.5 -86.5t83.5 -30.5q43 0 84.5 21t96.5 66zM81 203q128 14 198 61q71 50 71 107q0 25 -15 39.5
t-40 14.5q-74 0 -138 -76q-64 -74 -76 -146z" />
    <glyph glyph-name="f" unicode="f" horiz-adv-x="276" 
d="M208 430h87l-6 -23h-87l-75 -285q-45 -171 -101.5 -254.5t-133.5 -83.5q-21 0 -41.5 13t-20.5 33q0 15 11.5 26.5t27.5 11.5q11 0 19 -7.5t8 -17.5q0 -9 -8 -19t-8 -11q0 -11 18 -11q57 0 95 59t81 218l87 328h-101l6 23q57 0 79 14q21 15 51 76q86 174 192 174
q33 0 56.5 -17t23.5 -41q0 -17 -9.5 -27.5t-25.5 -10.5q-13 0 -23 7.5t-10 19.5q0 5 6.5 19.5t6.5 17.5q0 15 -24 15q-60 0 -103 -58t-78 -189z" />
    <glyph glyph-name="g" unicode="g" horiz-adv-x="475" 
d="M354 405h131l-10 -35h-96q9 -27 9 -54q0 -71 -56 -122t-130 -53q-99 -31 -99 -65q0 -15 23 -24q25 -8 121 -30q139 -32 139 -95q0 -39 -23.5 -68.5t-60.5 -44.5t-74.5 -22.5t-73.5 -7.5q-65 0 -122 19q-34 10 -54.5 32.5t-20.5 52.5q0 45 46 81q26 20 83 49
q-28 16 -28 38q0 26 33 49q32 21 68 35v2q-42 6 -74 41q-31 34 -31 79q0 69 58 124q59 56 143 56q50 0 99 -37zM200 157q58 0 98 49q41 50 41 128q0 43 -24.5 67.5t-69.5 24.5q-58 0 -100 -55t-42 -125q0 -42 26 -65.5t71 -23.5zM102 11q-35 -15 -70 -49q-32 -32 -32 -64
q0 -40 44.5 -66t121.5 -26q76 0 129 29t53 66q-3 27 -18 40.5t-62 28t-166 41.5z" />
    <glyph glyph-name="h" unicode="h" horiz-adv-x="496" 
d="M274 694h3l-145 -499l2 -2q50 85 113 159q74 90 137 90q22 0 35.5 -15.5t13.5 -39.5q0 -19 -8 -46l-10 -33q-12 -36 -36 -118q-39 -128 -39 -150q0 -15 15 -15q33 0 87 80l10 -7q-25 -41 -59 -74q-37 -36 -63 -36q-34 0 -34 41q0 24 45 178q30 100 30 101q17 54 17 66
q0 33 -29 33q-53 0 -143 -121q-89 -119 -118 -210l-24 -76h-42l158 544q22 75 22 84q0 16 -9.5 23t-35.5 7q-14 0 -32 -3v13z" />
    <glyph glyph-name="i" unicode="i" horiz-adv-x="272" 
d="M203 442h2l-102 -366q-7 -20 -7 -35q0 -16 17 -16q36 0 97 82l10 -7q-27 -41 -65 -77q-38 -35 -70 -35q-34 0 -34 43q0 15 15 71l52 189q22 78 22 85q0 16 -9.5 23t-35.5 7q-13 0 -32 -3v13zM212 555q-19 0 -26.5 15.5t0 31.5t26.5 16q19 1 27.5 -15t0.5 -32.5t-28 -15.5
z" />
    <glyph glyph-name="j" unicode="j" horiz-adv-x="269" 
d="M77 403v13l140 26h2l-124 -426q-32 -113 -84 -172.5t-119 -59.5q-24 0 -39 13t-15 31q0 13 10 22t23 9q14 0 22.5 -6t8.5 -15q0 -8 -9.5 -18t-9.5 -11q0 -7 13 -7q45 0 80.5 36.5t55.5 105.5l100 347q22 78 22 85q0 16 -10 23t-35 7zM196 587q0 12 9 21.5t21 9.5
q13 0 22 -9.5t9 -21.5q1 -19 -15 -27t-31.5 0t-14.5 27z" />
    <glyph glyph-name="k" unicode="k" horiz-adv-x="477" 
d="M272 694h2l-146 -500l2 -2l63 54q149 128 149 151q0 12 -15 16t-55 4l4 13h214l-2 -13q-52 -2 -86 -20q-34 -19 -84 -60l-65 -58l51 -214q9 -39 25 -39q27 0 92 81l10 -7q-27 -40 -64 -77q-35 -35 -59 -35q-17 0 -27 18t-20 64l-42 177l-100 -84l-47 -163h-41l157 543
q21 75 21 85q0 17 -10 23.5t-35 6.5l-32 -3v13z" />
    <glyph glyph-name="l" unicode="l" horiz-adv-x="258" 
d="M262 694h2l-173 -619q-7 -20 -7 -34q0 -16 17 -16q34 0 97 82l10 -7q-30 -42 -66 -77q-38 -35 -69 -35q-34 0 -34 43q0 15 15 71l124 441q21 75 21 85q0 16 -10 23t-35 7l-32 -3v13z" />
    <glyph glyph-name="m" unicode="m" horiz-adv-x="708" 
d="M72 0h-42l84 292q22 75 22 84q0 30 -45 30q-13 0 -32 -3v13l140 26h2l-72 -243l2 -2q29 54 58 98q35 52 85 99q51 48 90 48q45 0 45 -54q0 -18 -53 -201l2 -2q143 257 239 257q22 0 35.5 -15.5t13.5 -39.5q0 -20 -8 -47l-10 -33q-14 -43 -36 -117q-38 -126 -38 -150
q0 -15 15 -15q33 0 87 80l10 -7q-19 -33 -57 -71q-39 -39 -66 -39q-34 0 -34 41q0 24 45 178l16 54t14 48q17 54 17 65q0 33 -29 33q-30 0 -83 -60q-52 -58 -96 -134q-41 -70 -62 -129l-27 -84h-42l80 284q20 78 20 93q0 29 -29 29t-77 -54q-49 -53 -95 -137
q-48 -86 -73 -164z" />
    <glyph glyph-name="n" unicode="n" horiz-adv-x="494" 
d="M199 442h2l-71 -247l2 -2q50 85 113 159q74 90 137 90q21 0 35 -15.5t14 -39.5q0 -20 -8 -47l-10 -33q-14 -43 -36 -117q-38 -126 -38 -150q0 -15 15 -15q33 0 87 80l10 -7q-25 -42 -61 -75q-38 -35 -62 -35q-34 0 -34 41q0 24 45 178l16 54t14 48q17 54 17 65
q0 33 -29 33q-53 0 -143 -121q-89 -119 -118 -210l-24 -76h-42l84 292q22 78 22 84q0 30 -45 30q-6 0 -17 -1t-13 -1l-2 -1v13z" />
    <glyph glyph-name="o" unicode="o" horiz-adv-x="482" 
d="M165 -12q-62 0 -99.5 42t-37.5 109q0 114 84 208q84 95 186 95q56 0 92 -41.5t36 -110.5q0 -112 -81 -207t-180 -95zM171 4q81 0 145 103t64 216q0 50 -24 76.5t-66 26.5q-54 0 -107 -53q-52 -53 -80 -126q-29 -75 -29 -137q0 -46 26.5 -76t70.5 -30z" />
    <glyph glyph-name="p" unicode="p" horiz-adv-x="492" 
d="M446 319q4 -111 -87 -223t-185 -108q-44 0 -90 34l-37 -131q-12 -41 -12 -58q0 -34 70 -33h5l-4 -13h-216l4 13q50 0 70 13q20 14 35 66l118 413q22 78 22 82q0 18 -10 25t-35 7l-35 -4v14l142 26h3l-35 -122l2 -2q82 124 186 124q39 0 64 -32.5t25 -90.5zM400 316
q0 95 -70 95q-50 0 -111 -57q-60 -57 -92 -179l-36 -127q36 -43 95 -43q46 0 96 45q50 47 84 119t34 147z" />
    <glyph glyph-name="q" unicode="q" horiz-adv-x="491" 
d="M400 430l46 12l-157 -548q-13 -42 -13 -61q0 -33 72 -33l-3 -13h-215l4 13q52 0 71 15q21 13 36 65l84 290l-2 2q-103 -184 -213 -184q-80 0 -80 127q0 71 40 147t103 128q61 52 120 52q33 0 56.5 -26t24.5 -68h2zM137 28q40 0 93 50q54 52 89 124q37 73 37 134
q0 41 -18 64.5t-46 23.5q-48 0 -100 -54t-84 -125q-32 -72 -32 -122q0 -95 61 -95z" />
    <glyph glyph-name="r" unicode="r" horiz-adv-x="369" 
d="M69 0h-42l84 292q22 78 22 84q0 30 -45 30l-32 -3v13l140 26h2l-71 -247l2 -2q26 45 65 102q39 54 82 99q46 48 74 48q9 0 15.5 -8.5t6.5 -22.5q0 -29 -11 -49.5t-25 -20.5q-8 0 -12 19q-5 20 -17 20q-29 0 -107 -108q-78 -106 -114 -219z" />
    <glyph glyph-name="s" unicode="s" horiz-adv-x="391" 
d="M346 442h9l-30 -150h-9q1 56 -25.5 94.5t-72.5 38.5q-36 0 -58 -19.5t-22 -49.5q0 -43 70 -115q30 -29 50.5 -65t20.5 -66q0 -55 -39 -88.5t-95 -33.5q-36 0 -69 13q-34 14 -38 14q-25 0 -37 -27h-11l30 159h10q0 -144 112 -144q42 0 69 23t27 59q0 57 -69 126
q-68 74 -68 125q0 46 30.5 76t77.5 30q29 0 62 -14t40 -14q22 0 35 28z" />
    <glyph glyph-name="t" unicode="t" horiz-adv-x="270" 
d="M235 563h11l-38 -133h85l-6 -23h-86l-81 -284q-21 -71 -21 -83q0 -17 16 -17q37 0 102 84l10 -7q-28 -42 -66 -77t-71 -35q-34 0 -34 43q0 15 14 69l90 307h-79l1 11q91 10 153 145z" />
    <glyph glyph-name="u" unicode="u" horiz-adv-x="494" 
d="M409 431l45 10l-84 -291q-25 -81 -25 -109q0 -16 16 -16q31 0 85 79l10 -6q-25 -41 -60 -76q-34 -34 -67 -34q-29 0 -29 34q0 47 55 215l-2 2q-40 -78 -106 -157q-35 -42 -75.5 -68t-75.5 -26q-21 0 -34 15.5t-13 38.5q0 13 5 36q4 20 15 53l12 37l39 135q19 56 19 81
q0 19 -15 19q-18 0 -45 -27q-25 -23 -43 -50l-9 6q23 36 58 73q37 37 69 37t32 -40q0 -20 -51 -200q-4 -15 -17 -54q-24 -75 -24 -92q0 -33 29 -33q50 0 141 109q94 110 131 255z" />
    <glyph glyph-name="v" unicode="v" horiz-adv-x="444" 
d="M34 402l-3 12l110 26q46 -117 57 -392q145 166 183 239q17 34 17 53q0 14 -21 31q-21 18 -21 36q0 15 10.5 25t25.5 10q20 0 32.5 -15.5t12.5 -38.5q0 -64 -94 -188q-95 -124 -182 -212h-3q-11 197 -23 276q-12 89 -27 115q-14 26 -41 26q-19 0 -33 -3z" />
    <glyph glyph-name="w" unicode="w" horiz-adv-x="671" 
d="M407 442h5l34 -391q49 57 119 157q68 97 68 131q0 17 -24 34q-23 17 -23 36q0 13 9.5 23t23.5 10q21 0 32.5 -13.5t11.5 -35.5q0 -107 -248 -405h-8l-32 363h-2l-210 -363h-10q-4 139 -11 232q-4 78 -16 123q-11 43 -20 49q-11 8 -32 8q-23 0 -40 -4v13l123 33
q30 -106 37 -366h2z" />
    <glyph glyph-name="x" unicode="x" horiz-adv-x="447" 
d="M195 230l-18 83q-14 61 -35 78q-20 19 -68 19h-25v12l112 19q41 -35 66 -164q101 165 164 165q42 0 42 -33q0 -13 -10 -24t-25 -11q-6 0 -24.5 5t-23.5 5q-41 0 -118 -128l40 -170q13 -61 36 -61q15 0 43 31q27 30 40 54l10 -5q-17 -35 -54 -75q-38 -41 -66 -41
q-18 -4 -35 27q-3 4 -6 17l-7 29l-33 142l-19 -32l-24 -40l-26 -39q-22 -34 -59 -73q-29 -32 -61 -32q-20 0 -32.5 12t-12.5 28q0 14 10 24.5t25 10.5t28 -13q15 -12 19 -12q24 0 75 75q53 75 72 117z" />
    <glyph glyph-name="y" unicode="y" horiz-adv-x="444" 
d="M23 395l-2 11l126 34q25 -44 34 -138l25 -273q16 23 56 75l57 75l44 62q45 65 45 93q0 8 -8.5 13.5t-18.5 9t-18.5 15t-8.5 29.5q0 17 11 29t27 12q20 0 32.5 -19t12.5 -44q0 -54 -54 -135q-53 -80 -185 -245q-96 -121 -147 -168q-50 -47 -89 -47q-12 0 -21.5 10.5
t-9.5 25.5q0 16 13 30.5t28 14.5q17 0 24 -19t13 -19q17 0 67 51q45 45 88 103l-27 307q-5 60 -19 85t-44 25z" />
    <glyph glyph-name="z" unicode="z" horiz-adv-x="389" 
d="M55 325l33 105h302v-10l-354 -375h149q55 0 82 13t47 64h11l-41 -122h-309v10l359 377h-170q-44 0 -61 -11q-16 -10 -37 -51h-11z" />
    <glyph glyph-name="braceleft" unicode="{" horiz-adv-x="400" 
d="M101 235l4 10q162 33 162 153q0 63 18 117.5t47 86.5q41 44 90 67.5t83 24.5l-5 -13q-63 -4 -120 -61q-55 -55 -55 -140q0 -195 -185 -239v-2q86 -38 86 -126q0 -35 -37 -113q-36 -74 -36 -107q0 -77 93 -96l-3 -13q-59 10 -90.5 47.5t-31.5 96.5q0 46 38 120
q38 71 38 96q0 36 -26.5 59t-69.5 32z" />
    <glyph glyph-name="bar" unicode="|" horiz-adv-x="275" 
d="M259 694h22l-260 -910h-22z" />
    <glyph glyph-name="braceright" unicode="}" horiz-adv-x="400" 
d="M299 243l-4 -10q-162 -33 -162 -153q0 -63 -18.5 -117.5t-47.5 -86.5q-26 -30 -62 -52q-56 -34 -110 -40l5 13q62 4 119 61q56 56 56 140q0 195 185 239v2q-86 38 -86 126q0 35 37 113q36 73 36 107q0 77 -93 96l3 13q59 -10 90.5 -47.5t31.5 -96.5q0 -46 -38 -120
q-38 -71 -38 -96q0 -36 26.5 -59t69.5 -32z" />
    <glyph glyph-name="asciitilde" unicode="~" horiz-adv-x="541" 
d="M519 406h18q-3 -61 -38.5 -99t-95.5 -38q-47 0 -129 46q-80 45 -118 45t-64.5 -29t-30.5 -72h-16q4 64 38.5 100t95.5 36q51 0 130 -44q82 -46 117 -46q38 0 63 28.5t30 72.5z" />
    <glyph glyph-name="uni00A0" unicode="&#xa0;" horiz-adv-x="250" 
 />
    <glyph glyph-name="exclamdown" unicode="&#xa1;" horiz-adv-x="389" 
d="M147 42l86 259h13l-48 -217q-26 -115 -43 -198q-12 -58 -24.5 -80.5t-30.5 -22.5q-22 0 -22 30q0 34 69 229zM267 472q23 1 32 -17.5t-0.5 -37t-31.5 -17.5q-15 0 -25.5 10.5t-10.5 25.5t10.5 25.5t25.5 10.5z" />
    <glyph glyph-name="cent" unicode="&#xa2;" horiz-adv-x="509" 
d="M72 131q0 107 73 198q73 93 176 111l59 196h17l-58 -194q48 2 78.5 -19t30.5 -57q0 -27 -12.5 -44t-29.5 -17q-13 0 -22 8.5t-9 21.5q0 18 16 31q16 15 16 24q0 15 -14 25t-38 10q-1 0 -4 -0.5t-8 -1t-10 -0.5l-120 -401l24 -1q81 -3 168 93l9 -8q-99 -118 -211 -118
l-51 -172h-17l51 172q-55 4 -84.5 41.5t-29.5 101.5zM118 138q0 -92 79 -113l118 395q-83 -23 -140 -113q-57 -89 -57 -169z" />
    <glyph glyph-name="sterling" unicode="&#xa3;" 
d="M143 73q-23 20 -50 20q-25 0 -40.5 -14t-15.5 -35q0 -17 10.5 -30t26.5 -13q25 0 44 20.5t25 51.5zM255 354h145l-7 -22h-144q-28 -119 -66 -232q25 -9 55 -28q68 -38 109 -38q25 0 54 20t43 42h10q-24 -52 -64 -81.5t-90 -29.5q-36 0 -74 24l-20 14l-41 33
q-13 -30 -38 -50.5t-51 -20.5q-25 0 -40.5 16t-15.5 42q0 34 25.5 53.5t63.5 19.5l43 -6q8 28 19 111q9 71 17 111h-121l8 22h117l13 59l7.5 26.5t8.5 32.5q13 43 22 63q8 18 29 54q18 30 38 46.5t50 28.5q27 13 62 13q34 0 59.5 -24t25.5 -57q0 -38 -34 -38q-14 0 -24 11.5
t-12 29.5q-3 24 -14.5 39t-29.5 15q-58 0 -91 -94q-11 -33 -25 -104q-14 -73 -22 -101z" />
    <glyph glyph-name="currency" unicode="&#xa4;" 
d="M177 429l-75 76l16 16l76 -77q42 33 95 33q59 0 103 -38l81 81l16 -15l-81 -82q33 -41 33 -94q0 -58 -37 -99l79 -79l-16 -16l-79 79q-42 -36 -96 -36q-60 0 -99 33l-78 -79l-15 15l77 78q-39 47 -39 105q0 56 39 99zM414 329q0 54 -36.5 89t-89.5 35q-52 0 -87.5 -35.5
t-35.5 -87.5q0 -55 36 -91.5t90 -36.5q53 0 88 38t35 89z" />
    <glyph glyph-name="yen" unicode="&#xa5;" 
d="M310 0h-260l3 13q60 0 87 17.5t41 65.5l66 232l-5 16h-229l7 18h216l-39 128h-141l7 18h128l-19 61q-12 38 -27.5 56.5t-39.5 23.5l3 13h190l-4 -13q-81 0 -81 -49q0 -17 22 -92h181q68 86 68 113q0 28 -62 28l4 13h170l-4 -13q-23 0 -57 -31.5t-93 -109.5h131l-6 -18
h-140l-101 -128h204l-6 -18h-212l-23 -29l-51 -181q-14 -54 -14 -71q0 -27 21 -38.5t69 -11.5zM240 490l44 -146l117 146h-161z" />
    <glyph glyph-name="brokenbar" unicode="&#xa6;" horiz-adv-x="275" 
d="M19 -216h-21l87 304h21zM195 391h-24l87 303h24z" />
    <glyph glyph-name="section" unicode="&#xa7;" 
d="M408 213q0 -52 -30 -87t-77 -35q-19 0 -48 12l-2 -2q53 -70 53 -147q0 -72 -45 -119q-45 -48 -114 -48q-53 0 -100 32q-46 31 -46 82q0 14 8.5 25.5t20.5 11.5q17 0 26 -14t14 -34t12 -40t27 -34t52 -14q45 0 83 36t38 80q0 70 -58 141l-19.5 24t-21.5 27l-19 25.5
t-18.5 29l-13 28t-10.5 33t-3 33.5q0 54 29 85t82 31q14 0 40 -9v2q-49 61 -49 138q0 78 43 124.5t115 46.5q52 0 90 -34q39 -34 39 -68q0 -33 -32 -33q-24 0 -34 60q-3 24 -24 42t-55 18q-44 0 -79 -35t-35 -77q0 -74 57 -138q59 -67 77 -99q27 -49 27 -100zM379 186
q0 63 -49 118q-48 56 -110 56q-33 0 -56 -23t-23 -54q0 -61 52 -119q53 -59 112 -59q30 0 52 24.5t22 56.5z" />
    <glyph glyph-name="dieresis" unicode="&#xa8;" horiz-adv-x="333" 
d="M151 587q0 14 10 24.5t25 10.5t25 -10.5t10 -24.5q0 -13 -10 -24t-25 -11t-25 11t-10 24zM354 552q-15 0 -25 11t-10 24q0 23 21.5 32t37.5 -8q17 -16 8 -37.5t-32 -21.5z" />
    <glyph glyph-name="copyright" unicode="&#xa9;" horiz-adv-x="760" 
d="M553 554h13l10 -137h-8q-14 53 -58 88t-98 35q-82 0 -128 -53.5t-46 -142.5q0 -100 45.5 -158t129.5 -58q45 0 94 25q48 25 74 63l9 -6q-66 -99 -192 -99q-88 0 -147 60q-59 61 -59 154q0 100 62 165q61 64 160 64q30 0 70 -14q39 -13 46 -13q18 0 23 27zM644 575
q102 -101 102 -244t-102 -245q-101 -101 -244 -101q-142 0 -245 101q-101 103 -101 245q0 143 101 244q102 102 245 102q144 0 244 -102zM726 331q0 138 -96 233q-97 95 -231 95q-137 0 -231 -94t-94 -234q0 -139 96 -234q95 -94 230 -94t230 95q96 96 96 233z" />
    <glyph glyph-name="ordfeminine" unicode="&#xaa;" horiz-adv-x="287" 
d="M294 674l43 3l-46 -211q-5 -25 -5 -31q0 -12 11 -12q17 0 47 44l10 -5q-46 -76 -84 -76q-23 0 -23 37q0 31 12 68l-2 2q-62 -107 -122 -107q-22 0 -36.5 19t-14.5 55q0 62 51 139q52 78 106 78q33 0 47 -27zM283 617q0 22 -11 34.5t-29 12.5q-37 0 -77 -67
q-39 -67 -39 -130q0 -44 34 -44q31 0 76 66q46 67 46 128z" />
    <glyph glyph-name="guillemotleft" unicode="&#xab;" horiz-adv-x="491" 
d="M268 449h16l-181 -233l69 -231h-11l-116 231zM448 449h15l-181 -233l69 -231h-10l-116 231z" />
    <glyph glyph-name="logicalnot" unicode="&#xac;" horiz-adv-x="706" 
d="M110 404v21h525v-183h-21v162h-504z" />
    <glyph glyph-name="uni00AD" unicode="&#xad;" horiz-adv-x="333" 
d="M41 236h253l-9 -37h-253z" />
    <glyph glyph-name="registered" unicode="&#xae;" horiz-adv-x="760" 
d="M283 209v254q0 45 -9.5 60.5t-36.5 15.5v8h164q65 0 104.5 -30t39.5 -78q0 -42 -31 -72.5t-79 -38.5l99 -133q25 -36 42.5 -50t38.5 -14v-7h-91l-150 204h-45v-158q0 -23 12 -31t48 -8v-7h-157v7q33 0 42 13q9 14 9 65zM329 528v-188h9q83 0 120.5 20.5t37.5 70.5
q0 48 -32 76t-93 28q-24 0 -42 -7zM749 331q0 -139 -101 -243q-100 -103 -245 -103q-141 0 -243 102t-102 244q0 141 102 243q102 103 243 103q142 0 244 -102t102 -244zM403 658q-129 0 -227 -95t-98 -232q0 -138 94 -232t231 -94q133 0 231 93q97 93 97 233t-98 233
q-97 94 -230 94z" />
    <glyph glyph-name="overscore" unicode="&#xaf;" horiz-adv-x="333" 
d="M123 571l10 33h293l-10 -33h-293z" />
    <glyph glyph-name="degree" unicode="&#xb0;" horiz-adv-x="400" 
d="M234 377q-63 0 -109 44q-45 43 -45 108q0 61 45 104q44 43 106 43q59 0 106 -44q46 -43 46 -104q0 -60 -44 -106q-43 -45 -105 -45zM230 651q-50 0 -87 -36q-36 -35 -36 -86q0 -53 36 -91q37 -37 90 -37q52 0 87 38t35 89t-37 87t-88 36z" />
    <glyph glyph-name="plusminus" unicode="&#xb1;" horiz-adv-x="706" 
d="M651 69h-525v24h248v228h-248v24h248v250h25v-250h252v-24h-252v-228h252v-24z" />
    <glyph glyph-name="twosuperior" unicode="&#xb2;" horiz-adv-x="300" 
d="M286 395l-31 -72h-197v11l141 115q82 70 82 127q0 28 -18.5 45t-46.5 17q-51 0 -74 -41l-14 5q14 33 44.5 52.5t66.5 19.5q34 0 59 -23t25 -59q0 -25 -18.5 -55.5t-46.5 -54.5l-142 -122l-2 -2h85q60 0 75 37h12z" />
    <glyph glyph-name="threesuperior" unicode="&#xb3;" horiz-adv-x="300" 
d="M134 510v8q30 3 56 10q32 9 57 28.5t25 42.5t-14 36.5t-39 13.5q-33 0 -59 -44l-16 6q32 63 99 63q30 0 51 -17.5t21 -47.5q0 -50 -82 -81v-2q55 -24 55 -77q0 -57 -47 -95q-46 -37 -103 -37q-32 0 -53 9t-21 21q0 22 29 22q15 0 40 -13q25 -12 52 -12q23 0 41 25.5
t18 56.5q0 39 -30 60.5t-80 23.5z" />
    <glyph glyph-name="acute" unicode="&#xb4;" horiz-adv-x="333" 
d="M265 684h81l-134 -167h-11z" />
    <glyph glyph-name="mu" unicode="&#xb5;" 
d="M40 36l115 394h41l-37 -126l-40 -140q-15 -54 -15 -72q0 -71 62 -71q52 0 106 58q54 59 77 139l61 212h41l-88 -300q-10 -31 -10 -57q0 -53 39 -53q45 0 76 85h13q-13 -48 -46.5 -82.5t-74.5 -34.5q-50 0 -50 79q0 1 0.5 5t1 11.5t0.5 14.5l-2 2q-30 -51 -76 -81.5
t-93 -30.5q-60 0 -81 54q-26 -82 -37 -154q-7 -53 -15 -77q-9 -26 -32 -26q-10 0 -18 8.5t-8 22.5q0 18 40 99q40 84 50 121z" />
    <glyph glyph-name="paragraph" unicode="&#xb6;" horiz-adv-x="523" 
d="M598 642h-73l-245 -858h-22l246 858h-106l-245 -858h-22l146 510q-77 0 -129 22q-61 27 -61 107q0 54 33 111q29 56 93.5 91.5t166.5 36.5h223z" />
    <glyph glyph-name="middot" unicode="&#xb7;" horiz-adv-x="250" 
d="M119 332q0 15 10.5 25.5t25.5 10.5t25.5 -10.5t10.5 -25.5q1 -22 -17.5 -31.5t-37 -0.5t-17.5 32z" />
    <glyph glyph-name="cedilla" unicode="&#xb8;" horiz-adv-x="333" 
d="M111 10h21l-46 -60q41 -2 69 -19.5t28 -43.5q0 -45 -43 -70t-98 -25q-51 0 -91 13l5 13q35 -9 56 -9q51 0 81.5 18.5t30.5 46.5q0 25 -28 35q-28 11 -56 11z" />
    <glyph glyph-name="onesuperior" unicode="&#xb9;" horiz-adv-x="300" 
d="M280 674h17l-93 -278q-15 -48 -10.5 -55t39.5 -7h4l-3 -11h-148l4 11q27 0 40 4q14 5 26 38l76 229q5 18 5 23q0 18 -15 18q-14 0 -36 -6l-3 11z" />
    <glyph glyph-name="ordmasculine" unicode="&#xba;" horiz-adv-x="305" 
d="M348 570q0 -70 -44 -128q-44 -56 -102 -56q-33 0 -60 30q-27 32 -27 75q0 68 41 127t102 59q39 0 64.5 -30t25.5 -77zM311 604q0 29 -14.5 45t-39.5 16q-30 0 -56 -45t-37.5 -92t-11.5 -70q0 -28 15 -44t41 -16q30 0 55 39q48 76 48 167z" />
    <glyph glyph-name="guillemotright" unicode="&#xbb;" horiz-adv-x="492" 
d="M39 -15h-15l178 233l-66 231h10l115 -231zM219 -15h-16l178 233l-66 231h11l113 -231z" />
    <glyph glyph-name="onequarter" unicode="&#xbc;" horiz-adv-x="750" 
d="M671 344h25l-77 -232h54l-8 -23h-53l-33 -96h-36l33 96h-153l8 22zM456 112h127l57 176h-2zM613 674h27l-457 -701h-27zM280 674h17l-93 -278q-15 -48 -10.5 -55t39.5 -7h4l-3 -11h-148l4 11q27 0 40 4q14 5 26 38l76 229q5 18 5 23q0 18 -15 18q-18 0 -36 -6l-3 11z" />
    <glyph glyph-name="onehalf" unicode="&#xbd;" horiz-adv-x="750" 
d="M587 674h28l-457 -701h-28zM643 72l-32 -72h-197v11l141 115q84 69 84 127q0 28 -19 45t-48 17q-50 0 -74 -41l-14 5q14 33 44.5 52.5t66.5 19.5q35 0 59.5 -23t24.5 -59q0 -25 -21 -59q-22 -34 -43 -51l-143 -122l-2 -2h85q62 0 75 37h13zM280 674h17l-93 -278
q-12 -44 -12 -45q0 -12 13 -16q12 -1 32 -1l-3 -11h-148l4 11q31 0 44 8t22 34l76 229q5 18 5 23q0 18 -15 18q-18 0 -36 -6l-3 11z" />
    <glyph glyph-name="threequarters" unicode="&#xbe;" horiz-adv-x="750" 
d="M608 674h27l-457 -701h-27zM134 510v8q30 3 56 10q32 9 57 28.5t25 42.5q0 50 -53 50q-33 0 -59 -44l-16 6q32 63 99 63q31 0 51.5 -17.5t20.5 -47.5q0 -48 -82 -81v-2q55 -24 55 -77q0 -57 -47 -95q-46 -37 -103 -37q-32 0 -53 9t-21 21q0 22 29 22q8 0 40.5 -12.5
t53.5 -12.5q19 0 38 25t19 57q0 39 -30 60.5t-80 23.5zM672 344h26l-77 -232h54l-8 -23h-54l-32 -96h-35l31 96h-152l8 22zM458 112h127l57 176h-2z" />
    <glyph glyph-name="questiondown" unicode="&#xbf;" 
d="M322 300h13q-4 -94 -86 -181l-33 -34l-35.5 -37.5t-29 -34.5t-27 -38.5t-15.5 -36t-7 -39.5q0 -43 34 -71q35 -29 79 -29q33 0 59 14.5t26 34.5q0 6 -8 27.5t-8 29.5q0 15 10.5 24t27.5 9q15 0 25.5 -11.5t10.5 -26.5q0 -47 -43 -81q-43 -35 -111 -35q-71 0 -112 38
t-41 99q0 40 25.5 76t63 66l76 61.5t69 77t37.5 98.5zM350 473q23 1 32 -17.5t-0.5 -37t-31.5 -17.5q-15 0 -25.5 10.5t-10.5 25.5t10.5 25.5t25.5 10.5z" />
    <glyph glyph-name="Agrave" unicode="&#xc0;" horiz-adv-x="619" 
d="M406 119l9 105h-208l-71 -98l-13 -20q-22 -32 -22 -52q0 -41 53 -41l-5 -13h-182l4 13q50 6 80 40l19 22l18 25q11 16 15 20l403 557h4l-52 -522q-5 -70 -5 -82q0 -35 21 -47.5t69 -12.5l-5 -13h-234l4 13q65 0 81 31q13 27 17 75zM445 553h-3l-217 -305h192zM374 868h81
l61 -167h-11z" />
    <glyph glyph-name="Aacute" unicode="&#xc1;" horiz-adv-x="619" 
d="M406 119l9 105h-208l-71 -98l-13 -20q-22 -32 -22 -52q0 -41 53 -41l-5 -13h-182l4 13q50 6 80 40l19 22l18 25q11 16 15 20l403 557h4l-52 -522q-5 -70 -5 -82q0 -35 21 -47.5t69 -12.5l-5 -13h-234l4 13q65 0 81 31q13 27 17 75zM445 553h-3l-217 -305h192zM573 868h81
l-134 -167h-11z" />
    <glyph glyph-name="Acircumflex" unicode="&#xc2;" horiz-adv-x="619" 
d="M406 119l9 105h-208l-71 -98l-13 -20q-22 -32 -22 -52q0 -41 53 -41l-5 -13h-182l4 13q50 6 80 40l19 22l18 25q11 16 15 20l403 557h4l-52 -522q-5 -70 -5 -82q0 -35 21 -47.5t69 -12.5l-5 -13h-234l4 13q65 0 81 31q13 27 17 75zM445 553h-3l-217 -305h192zM539 850h53
l43 -152h-10l-74 111l-159 -111h-15z" />
    <glyph glyph-name="Atilde" unicode="&#xc3;" horiz-adv-x="619" 
d="M406 119l9 105h-208l-71 -98l-13 -20q-22 -32 -22 -52q0 -41 53 -41l-5 -13h-182l4 13q50 6 80 40l19 22l18 25q11 16 15 20l403 557h4l-52 -522q-5 -70 -5 -82q0 -35 21 -47.5t69 -12.5l-5 -13h-234l4 13q65 0 81 31q13 27 17 75zM445 553h-3l-217 -305h192zM392 704h-9
q-2 119 81 119q35 0 91 -37q50 -32 73 -32q37 0 49 78h9q1 -57 -17 -86t-64 -29q-34 0 -88 36q-49 33 -76 33q-37 0 -49 -82z" />
    <glyph glyph-name="Adieresis" unicode="&#xc4;" horiz-adv-x="619" 
d="M406 119l9 105h-208l-71 -98l-13 -20q-22 -32 -22 -52q0 -41 53 -41l-5 -13h-182l4 13q50 6 80 40l19 22l18 25q11 16 15 20l403 557h4l-52 -522q-5 -70 -5 -82q0 -35 21 -47.5t69 -12.5l-5 -13h-234l4 13q65 0 81 31q13 27 17 75zM445 553h-3l-217 -305h192zM411 771
q0 14 10 24.5t25 10.5t25 -10.5t10 -24.5q0 -13 -10 -24t-25 -11t-25 11t-10 24zM614 736q-15 0 -25 11t-10 24q0 23 21.5 32t37.5 -8q17 -16 8 -37.5t-32 -21.5z" />
    <glyph glyph-name="Aring" unicode="&#xc5;" horiz-adv-x="619" 
d="M406 119l9 105h-208l-71 -98l-13 -20q-22 -32 -22 -52q0 -41 53 -41l-5 -13h-182l4 13q50 6 80 40l19 22l18 25q11 16 15 20l403 557h4l-52 -522q-5 -70 -5 -82q0 -35 21 -47.5t69 -12.5l-5 -13h-234l4 13q65 0 81 31q13 27 17 75zM445 553h-3l-217 -305h192zM426 748
q0 38 27 64.5t64 26.5q39 0 65 -26.5t26 -64.5t-27 -64.5t-64 -26.5q-38 0 -64.5 26t-26.5 65zM449 748q0 -29 20 -49.5t48 -20.5t48 20.5t20 49.5q0 30 -20 50t-48 20q-29 0 -48.5 -20t-19.5 -50z" />
    <glyph glyph-name="AE" unicode="&#xc6;" horiz-adv-x="873" 
d="M410 120l36 125h-221l-75 -92q-62 -76 -62 -104q0 -36 57 -36l-3 -13h-194l4 13q33 0 62 25q30 25 82 88l348 418q9 9 27 36t18 43q0 26 -53 26l4 13h460l-42 -157h-12q13 59 -12 96t-83 37h-148l-79 -279h56q74 0 106 18q33 19 58 82h12l-68 -241h-12q12 61 -3.5 89
t-67.5 28h-88l-63 -222q-12 -42 -12 -57q0 -16 8 -24q11 -8 43 -8q68 0 91 1q65 4 113 27q17 8 36 30q23 27 32 41q23 37 35 59h11l-61 -182h-456l4 13q49 0 70 18q21 20 42 89zM245 269h208l105 373l-2 2z" />
    <glyph glyph-name="Ccedilla" unicode="&#xc7;" horiz-adv-x="659" 
d="M677 677h12l-49 -214h-12q13 102 -33.5 147t-112.5 45q-75 0 -142.5 -39t-111.5 -103q-90 -133 -90 -275q0 -103 59 -163t161 -60q133 0 229 136h18q-100 -166 -276 -166q-16 0 -20 1l-27 -36q41 -2 69 -19.5t28 -43.5q0 -45 -43 -70t-98 -25q-51 0 -91 13l5 13
q35 -9 56 -9q51 0 81.5 18.5t30.5 46.5q0 25 -28 35q-28 11 -56 11l53 68q-94 12 -151 81q-57 71 -57 180q0 111 55 209t149 159q95 60 199 60q44 0 104 -23q24 -10 39 -10q26 0 50 33z" />
    <glyph glyph-name="Egrave" unicode="&#xc8;" horiz-adv-x="599" 
d="M100 96l119 418q17 59 17 85q0 27 -19.5 38.5t-62.5 11.5l4 13h468l-42 -157h-12q11 71 -16 102t-102 31h-154l-79 -279h98q75 0 106 18q33 19 58 82h12l-68 -241h-12q12 62 -5 89.5t-67 27.5h-129l-57 -202q-16 -54 -16 -74q0 -22 19 -28.5t73 -6.5q136 0 189 28
q53 27 110 130h12l-61 -182h-505l4 13q51 0 77.5 18t40.5 65zM287 868h81l61 -167h-11z" />
    <glyph glyph-name="Eacute" unicode="&#xc9;" horiz-adv-x="599" 
d="M100 96l119 418q17 59 17 85q0 27 -19.5 38.5t-62.5 11.5l4 13h468l-42 -157h-12q11 71 -16 102t-102 31h-154l-79 -279h98q75 0 106 18q33 19 58 82h12l-68 -241h-12q12 62 -5 89.5t-67 27.5h-129l-57 -202q-16 -54 -16 -74q0 -22 19 -28.5t73 -6.5q136 0 189 28
q53 27 110 130h12l-61 -182h-505l4 13q51 0 77.5 18t40.5 65zM475 868h81l-134 -167h-11z" />
    <glyph glyph-name="Ecircumflex" unicode="&#xca;" horiz-adv-x="599" 
d="M100 96l119 418q17 59 17 85q0 27 -19.5 38.5t-62.5 11.5l4 13h468l-42 -157h-12q11 71 -16 102t-102 31h-154l-79 -279h98q75 0 106 18q33 19 58 82h12l-68 -241h-12q12 62 -5 89.5t-67 27.5h-129l-57 -202q-16 -54 -16 -74q0 -22 19 -28.5t73 -6.5q136 0 189 28
q53 27 110 130h12l-61 -182h-505l4 13q51 0 77.5 18t40.5 65zM442 850h53l43 -152h-10l-74 111l-159 -111h-15z" />
    <glyph glyph-name="Edieresis" unicode="&#xcb;" horiz-adv-x="599" 
d="M100 96l119 418q17 59 17 85q0 27 -19.5 38.5t-62.5 11.5l4 13h468l-42 -157h-12q11 71 -16 102t-102 31h-154l-79 -279h98q75 0 106 18q33 19 58 82h12l-68 -241h-12q12 62 -5 89.5t-67 27.5h-129l-57 -202q-16 -54 -16 -74q0 -22 19 -28.5t73 -6.5q136 0 189 28
q53 27 110 130h12l-61 -182h-505l4 13q51 0 77.5 18t40.5 65zM302 771q0 14 10 24.5t25 10.5t25 -10.5t10 -24.5q0 -13 -10 -24t-25 -11t-25 11t-10 24zM505 736q-15 0 -25 11t-10 24q0 23 21.5 32t37.5 -8q17 -16 8 -37.5t-32 -21.5z" />
    <glyph glyph-name="Igrave" unicode="&#xcc;" horiz-adv-x="331" 
d="M230 0h-247l4 13q52 0 78.5 19t39.5 64l119 418q17 53 17 85q0 26 -19.5 38t-65.5 12l4 13h247l-4 -13q-54 0 -79.5 -19t-39.5 -67l-122 -429q-14 -51 -14 -71q0 -27 19.5 -38.5t66.5 -11.5zM160 868h81l61 -167h-11z" />
    <glyph glyph-name="Iacute" unicode="&#xcd;" horiz-adv-x="331" 
d="M230 0h-247l4 13q52 0 78.5 19t39.5 64l119 418q17 53 17 85q0 26 -19.5 38t-65.5 12l4 13h247l-4 -13q-54 0 -79.5 -19t-39.5 -67l-122 -429q-14 -51 -14 -71q0 -27 19.5 -38.5t66.5 -11.5zM351 868h81l-134 -167h-11z" />
    <glyph glyph-name="Icircumflex" unicode="&#xce;" horiz-adv-x="331" 
d="M230 0h-247l4 13q52 0 78.5 19t39.5 64l119 418q17 53 17 85q0 26 -19.5 38t-65.5 12l4 13h247l-4 -13q-54 0 -79.5 -19t-39.5 -67l-122 -429q-14 -51 -14 -71q0 -27 19.5 -38.5t66.5 -11.5zM322 850h53l43 -152h-10l-74 111l-159 -111h-15z" />
    <glyph glyph-name="Idieresis" unicode="&#xcf;" horiz-adv-x="331" 
d="M230 0h-247l4 13q52 0 78.5 19t39.5 64l119 418q17 53 17 85q0 26 -19.5 38t-65.5 12l4 13h247l-4 -13q-54 0 -79.5 -19t-39.5 -67l-122 -429q-14 -51 -14 -71q0 -27 19.5 -38.5t66.5 -11.5zM188 767q0 14 10 24.5t25 10.5t25 -10.5t10 -24.5q0 -13 -10 -24t-25 -11
t-25 11t-10 24zM391 732q-15 0 -25 11t-10 24q0 23 21.5 32t37.5 -8q17 -16 8 -37.5t-32 -21.5z" />
    <glyph glyph-name="Eth" unicode="&#xd0;" horiz-adv-x="715" 
d="M104 92l70 245h-110l6 18h109l45 159q17 59 17 86q0 26 -20 37.5t-65 11.5l4 13h231q171 0 236 -89q58 -79 58 -191q0 -93 -54 -188q-33 -55 -77 -96q-48 -44 -126.5 -71t-171.5 -27h-273l4 13q53 0 78.5 18t38.5 61zM305 636l-80 -281h199l-7 -18h-197l-59 -207
q-19 -66 -19 -78q0 -18 19.5 -23.5t64.5 -5.5h7q100 0 177.5 30.5t124.5 85.5q92 109 92 264q0 117 -65.5 176.5t-189.5 59.5q-22 0 -67 -3z" />
    <glyph glyph-name="Ntilde" unicode="&#xd1;" horiz-adv-x="682" 
d="M142 662h132l217 -580h2l122 432q17 62 17 85q0 27 -17.5 38.5t-60.5 11.5l4 13h208l-4 -14q-50 0 -72 -19q-23 -20 -39 -74l-164 -570h-8l-215 572h-2l-121 -423q-14 -51 -14 -71q0 -50 76 -50l-4 -13h-200l3 13q43 0 67.5 19.5t36.5 62.5l142 497q-20 31 -45.5 43
t-65.5 12zM321 704h-9q-2 119 81 119q35 0 91 -37q50 -32 73 -32q37 0 49 78h9q1 -57 -17 -86t-64 -29q-34 0 -88 36q-49 33 -76 33q-37 0 -49 -82z" />
    <glyph glyph-name="Ograve" unicode="&#xd2;" horiz-adv-x="682" 
d="M469 677q94 0 150 -65q57 -64 57 -165q0 -112 -69 -234q-34 -61 -83 -113t-117.5 -83.5t-142.5 -31.5q-94 0 -149 66q-55 67 -55 165q0 72 31 152.5t83 149.5q52 68 131 114q80 45 164 45zM460 658q-63 0 -126 -39.5t-111 -106.5q-47 -65 -75 -149q-29 -85 -29 -167
q0 -93 40.5 -142.5t117.5 -49.5q79 0 158 63q79 64 130 173q52 108 52 228q0 92 -41.5 141t-115.5 49zM349 868h81l61 -167h-11z" />
    <glyph glyph-name="Oacute" unicode="&#xd3;" horiz-adv-x="682" 
d="M469 677q94 0 150 -65q57 -64 57 -165q0 -112 -69 -234q-34 -61 -83 -113t-117.5 -83.5t-142.5 -31.5q-94 0 -149 66q-55 67 -55 165q0 72 31 152.5t83 149.5q52 68 131 114q80 45 164 45zM460 658q-63 0 -126 -39.5t-111 -106.5q-47 -65 -75 -149q-29 -85 -29 -167
q0 -93 40.5 -142.5t117.5 -49.5q79 0 158 63q79 64 130 173q52 108 52 228q0 92 -41.5 141t-115.5 49zM559 868h81l-134 -167h-11z" />
    <glyph glyph-name="Ocircumflex" unicode="&#xd4;" horiz-adv-x="682" 
d="M469 677q94 0 150 -65q57 -64 57 -165q0 -112 -69 -234q-34 -61 -83 -113t-117.5 -83.5t-142.5 -31.5q-94 0 -149 66q-55 67 -55 165q0 72 31 152.5t83 149.5q52 68 131 114q80 45 164 45zM460 658q-63 0 -126 -39.5t-111 -106.5q-47 -65 -75 -149q-29 -85 -29 -167
q0 -93 40.5 -142.5t117.5 -49.5q79 0 158 63q79 64 130 173q52 108 52 228q0 92 -41.5 141t-115.5 49zM532 850h53l43 -152h-10l-74 111l-159 -111h-15z" />
    <glyph glyph-name="Otilde" unicode="&#xd5;" horiz-adv-x="682" 
d="M469 677q94 0 150 -65q57 -64 57 -165q0 -112 -69 -234q-34 -61 -83 -113t-117.5 -83.5t-142.5 -31.5q-94 0 -149 66q-55 67 -55 165q0 72 31 152.5t83 149.5q52 68 131 114q80 45 164 45zM460 658q-63 0 -126 -39.5t-111 -106.5q-47 -65 -75 -149q-29 -85 -29 -167
q0 -93 40.5 -142.5t117.5 -49.5q79 0 158 63q79 64 130 173q52 108 52 228q0 92 -41.5 141t-115.5 49zM394 704h-9q-2 119 81 119q35 0 91 -37q50 -32 73 -32q37 0 49 78h9q1 -57 -17 -86t-64 -29q-34 0 -88 36q-49 33 -76 33q-37 0 -49 -82z" />
    <glyph glyph-name="Odieresis" unicode="&#xd6;" horiz-adv-x="682" 
d="M469 677q94 0 150 -65q57 -64 57 -165q0 -112 -69 -234q-34 -61 -83 -113t-117.5 -83.5t-142.5 -31.5q-94 0 -149 66q-55 67 -55 165q0 72 31 152.5t83 149.5q52 68 131 114q80 45 164 45zM460 658q-63 0 -126 -39.5t-111 -106.5q-47 -65 -75 -149q-29 -85 -29 -167
q0 -93 40.5 -142.5t117.5 -49.5q79 0 158 63q79 64 130 173q52 108 52 228q0 92 -41.5 141t-115.5 49zM420 771q0 14 10 24.5t25 10.5t25 -10.5t10 -24.5q0 -13 -10 -24t-25 -11t-25 11t-10 24zM623 736q-15 0 -25 11t-10 24q0 23 21.5 32t37.5 -8q17 -16 8 -37.5t-32 -21.5
z" />
    <glyph glyph-name="multiply" unicode="&#xd7;" horiz-adv-x="706" 
d="M201 138l-15 15l178 179l-180 178l17 17l179 -178l179 178l16 -16l-180 -179l180 -179l-17 -17l-179 179z" />
    <glyph glyph-name="Oslash" unicode="&#xd8;" horiz-adv-x="722" 
d="M153 96l460 482q-39 80 -137 80q-85 0 -165 -68q-78 -67 -127 -176q-48 -106 -48 -219q0 -56 17 -99zM620 560l-459 -481q37 -75 133 -75q78 0 158 63q79 64 130 172q52 108 52 228q0 57 -14 93zM641 607l73 77l13 -12l-76 -79q42 -58 42 -145q0 -113 -69 -235
q-34 -61 -83 -113t-117.5 -83.5t-142.5 -31.5q-94 0 -148 65l-78 -82l-13 12l80 84q-45 62 -45 152q0 72 31 152.5t83 149.5q52 68 131 114q80 45 165 45q96 0 154 -70z" />
    <glyph glyph-name="Ugrave" unicode="&#xd9;" horiz-adv-x="722" 
d="M281 563l-77 -272q-21 -73 -21 -120q0 -72 49 -115t124 -43q104 0 157 69q53 68 100 228l59 208q16 55 16 81q0 50 -73 50l4 13h202l-4 -13q-55 -1 -76 -27q-22 -25 -44 -102l-81 -275q-40 -136 -106 -198t-171 -62q-95 0 -148 57q-51 57 -51 131q0 39 6 72q9 41 34 126
q58 196 58 228q0 29 -22 39.5t-77 10.5l4 13h273l-4 -13q-66 0 -92 -19q-26 -20 -39 -67zM391 868h81l61 -167h-11z" />
    <glyph glyph-name="Uacute" unicode="&#xda;" horiz-adv-x="722" 
d="M281 563l-77 -272q-21 -73 -21 -120q0 -72 49 -115t124 -43q104 0 157 69q53 68 100 228l59 208q16 55 16 81q0 50 -73 50l4 13h202l-4 -13q-55 -1 -76 -27q-22 -25 -44 -102l-81 -275q-40 -136 -106 -198t-171 -62q-95 0 -148 57q-51 57 -51 131q0 39 6 72q9 41 34 126
q58 196 58 228q0 29 -22 39.5t-77 10.5l4 13h273l-4 -13q-66 0 -92 -19q-26 -20 -39 -67zM585 868h81l-134 -167h-11z" />
    <glyph glyph-name="Ucircumflex" unicode="&#xdb;" horiz-adv-x="722" 
d="M281 563l-77 -272q-21 -73 -21 -120q0 -72 49 -115t124 -43q104 0 157 69q53 68 100 228l59 208q16 55 16 81q0 50 -73 50l4 13h202l-4 -13q-55 -1 -76 -27q-22 -25 -44 -102l-81 -275q-40 -136 -106 -198t-171 -62q-95 0 -148 57q-51 57 -51 131q0 39 6 72q9 41 34 126
q58 196 58 228q0 29 -22 39.5t-77 10.5l4 13h273l-4 -13q-66 0 -92 -19q-26 -20 -39 -67zM569 850h53l43 -152h-10l-74 111l-159 -111h-15z" />
    <glyph glyph-name="Udieresis" unicode="&#xdc;" horiz-adv-x="722" 
d="M281 563l-77 -272q-21 -73 -21 -120q0 -72 49 -115t124 -43q104 0 157 69q53 68 100 228l59 208q16 55 16 81q0 50 -73 50l4 13h202l-4 -13q-55 -1 -76 -27q-22 -25 -44 -102l-81 -275q-40 -136 -106 -198t-171 -62q-95 0 -148 57q-51 57 -51 131q0 39 6 72q9 41 34 126
q58 196 58 228q0 29 -22 39.5t-77 10.5l4 13h273l-4 -13q-66 0 -92 -19q-26 -20 -39 -67zM425 771q0 14 10 24.5t25 10.5t25 -10.5t10 -24.5q0 -13 -10 -24t-25 -11t-25 11t-10 24zM628 736q-15 0 -25 11t-10 24q0 23 21.5 32t37.5 -8q17 -16 8 -37.5t-32 -21.5z" />
    <glyph glyph-name="Yacute" unicode="&#xdd;" horiz-adv-x="581" 
d="M307 520l53 -177l141 177q59 76 59 101q0 28 -69 28l4 13h194l-5 -13q-35 0 -63 -22q-28 -23 -73 -80l-183 -232l-51 -181q-14 -48 -14 -71q0 -27 21 -38.5t70 -11.5l-4 -13h-263l4 13q60 0 87.5 17.5t41.5 65.5l66 232l-75 241q-13 42 -35.5 61t-61.5 19l3 13h231
l-4 -13q-48 0 -70 -11t-22 -38q0 -22 18 -80zM511 868h81l-134 -167h-11z" />
    <glyph glyph-name="Thorn" unicode="&#xde;" horiz-adv-x="611" 
d="M230 0h-247l4 13q53 0 79 19t39 63l119 419q25 84 12 109.5t-80 25.5l4 13h247l-4 -13q-55 0 -80.5 -19.5t-40.5 -73.5l-13 -47h146q76 0 119.5 -40.5t43.5 -116.5q0 -83 -68 -142q-67 -58 -165 -58h-178l-3 -11q-16 -60 -16 -78q0 -27 21 -38.5t65 -11.5zM519 361
q0 61 -33.5 93.5t-86.5 32.5h-137l-89 -313h118q228 0 228 187z" />
    <glyph glyph-name="germandbls" unicode="&#xdf;" horiz-adv-x="495" 
d="M-4 -77l166 583q53 188 194 188q53 0 86 -35t33 -95q0 -68 -50 -116q-50 -47 -118 -56v-2q112 -37 112 -152q0 -96 -59 -173t-123 -77q-32 0 -52.5 25.5t-20.5 59.5q0 19 10.5 33.5t25.5 14.5q13 0 21 -8.5t8 -20.5t-10 -32q-10 -19 -10 -27q0 -14 9 -22.5t23 -8.5
q43 0 87 74q45 74 45 176q0 56 -36.5 94.5t-90.5 40.5l3 14q87 0 138 58q51 59 51 127q0 41 -24 66t-60 25q-52 0 -89.5 -50t-65.5 -151l-58 -207q-33 -120 -51 -179q-20 -62 -48 -141q-58 -165 -150 -165q-21 0 -37 14t-16 34q0 13 9.5 22.5t22.5 9.5q10 0 17 -6t7 -15
q0 -5 -5.5 -17.5t-5.5 -13.5q0 -11 20 -11q30 0 55 40q27 42 37 82z" />
    <glyph glyph-name="agrave" unicode="&#xe0;" horiz-adv-x="497" 
d="M399 431l44 10l-102 -358q-8 -29 -8 -44q0 -16 16 -16q30 0 82 79l10 -6q-65 -108 -123 -108q-29 0 -29 35q0 31 25 116l-2 2q-98 -153 -195 -153q-39 0 -61.5 30.5t-22.5 82.5q0 75 41 157q42 81 102 132q61 52 115 52q36 0 57 -23.5t24 -67.5h2zM354 336q0 90 -64 90
q-45 0 -94 -52q-50 -52 -84 -126q-33 -74 -33 -133q0 -41 17 -64t48 -23q24 0 59.5 23.5t68.5 62.5q35 41 58.5 101t23.5 121zM180 684h81l61 -167h-11z" />
    <glyph glyph-name="aacute" unicode="&#xe1;" horiz-adv-x="497" 
d="M399 431l44 10l-102 -358q-8 -29 -8 -44q0 -16 16 -16q30 0 82 79l10 -6q-65 -108 -123 -108q-29 0 -29 35q0 31 25 116l-2 2q-98 -153 -195 -153q-39 0 -61.5 30.5t-22.5 82.5q0 75 41 157q42 81 102 132q61 52 115 52q36 0 57 -23.5t24 -67.5h2zM354 336q0 90 -64 90
q-45 0 -94 -52q-50 -52 -84 -126q-33 -74 -33 -133q0 -41 17 -64t48 -23q24 0 59.5 23.5t68.5 62.5q35 41 58.5 101t23.5 121zM380 684h81l-134 -167h-11z" />
    <glyph glyph-name="acircumflex" unicode="&#xe2;" horiz-adv-x="497" 
d="M399 431l44 10l-102 -358q-8 -29 -8 -44q0 -16 16 -16q30 0 82 79l10 -6q-65 -108 -123 -108q-29 0 -29 35q0 31 25 116l-2 2q-98 -153 -195 -153q-39 0 -61.5 30.5t-22.5 82.5q0 75 41 157q42 81 102 132q61 52 115 52q36 0 57 -23.5t24 -67.5h2zM354 336q0 90 -64 90
q-45 0 -94 -52q-50 -52 -84 -126q-33 -74 -33 -133q0 -41 17 -64t48 -23q24 0 59.5 23.5t68.5 62.5q35 41 58.5 101t23.5 121zM379 675h53l43 -152h-10l-74 111l-159 -111h-15z" />
    <glyph glyph-name="atilde" unicode="&#xe3;" horiz-adv-x="497" 
d="M399 431l44 10l-102 -358q-8 -29 -8 -44q0 -16 16 -16q30 0 82 79l10 -6q-65 -108 -123 -108q-29 0 -29 35q0 31 25 116l-2 2q-98 -153 -195 -153q-39 0 -61.5 30.5t-22.5 82.5q0 75 41 157q42 81 102 132q61 52 115 52q36 0 57 -23.5t24 -67.5h2zM354 336q0 90 -64 90
q-45 0 -94 -52q-50 -52 -84 -126q-33 -74 -33 -133q0 -41 17 -64t48 -23q24 0 59.5 23.5t68.5 62.5q35 41 58.5 101t23.5 121zM226 536h-9q-2 119 81 119q35 0 91 -37q50 -32 73 -32q37 0 49 78h9q1 -57 -17 -86t-64 -29q-34 0 -88 36q-49 33 -76 33q-37 0 -49 -82z" />
    <glyph glyph-name="adieresis" unicode="&#xe4;" horiz-adv-x="497" 
d="M399 431l44 10l-102 -358q-8 -29 -8 -44q0 -16 16 -16q30 0 82 79l10 -6q-65 -108 -123 -108q-29 0 -29 35q0 31 25 116l-2 2q-98 -153 -195 -153q-39 0 -61.5 30.5t-22.5 82.5q0 75 41 157q42 81 102 132q61 52 115 52q36 0 57 -23.5t24 -67.5h2zM354 336q0 90 -64 90
q-45 0 -94 -52q-50 -52 -84 -126q-33 -74 -33 -133q0 -41 17 -64t48 -23q24 0 59.5 23.5t68.5 62.5q35 41 58.5 101t23.5 121zM233 587q0 14 10 24.5t25 10.5t25 -10.5t10 -24.5q0 -13 -10 -24t-25 -11t-25 11t-10 24zM436 552q-15 0 -25 11t-10 24q0 23 21.5 32t37.5 -8
q17 -16 8 -37.5t-32 -21.5z" />
    <glyph glyph-name="aring" unicode="&#xe5;" horiz-adv-x="497" 
d="M399 431l44 10l-102 -358q-8 -29 -8 -44q0 -16 16 -16q30 0 82 79l10 -6q-65 -108 -123 -108q-29 0 -29 35q0 31 25 116l-2 2q-98 -153 -195 -153q-39 0 -61.5 30.5t-22.5 82.5q0 75 41 157q42 81 102 132q61 52 115 52q36 0 57 -23.5t24 -67.5h2zM354 336q0 90 -64 90
q-45 0 -94 -52q-50 -52 -84 -126q-33 -74 -33 -133q0 -41 17 -64t48 -23q24 0 59.5 23.5t68.5 62.5q35 41 58.5 101t23.5 121zM270 601q0 37 27 64t64 27q39 0 65 -26.5t26 -64.5q0 -37 -27 -64t-64 -27q-38 0 -64.5 26t-26.5 65zM293 601q0 -29 20 -49.5t48 -20.5t48 20.5
t20 49.5q0 30 -20 50t-48 20q-29 0 -48.5 -20t-19.5 -50z" />
    <glyph glyph-name="ae" unicode="&#xe6;" horiz-adv-x="661" 
d="M387 424l50 7l-12 -46l2 -2q68 59 132 59q31 0 52 -19t21 -52q0 -60 -67 -112q-66 -51 -199 -74q-5 -33 -5 -55q0 -50 25 -77t71 -27q67 0 151 88l8 -10q-41 -52 -92 -84t-103 -32q-50 0 -81 40q-32 41 -32 95v34l-2 2q-52 -91 -93.5 -131t-94.5 -40q-85 0 -85 113
q0 80 41 160q42 81 101 131q61 50 113 50q76 0 78 -105h2zM350 342q0 84 -62 84q-43 0 -94 -53q-50 -54 -83 -126t-33 -129q0 -39 17.5 -62.5t47.5 -23.5q37 0 86 49t85 123t36 138zM370 200q105 16 165 67q59 50 59 103q0 54 -50 54q-52 0 -103 -63q-50 -64 -71 -161z" />
    <glyph glyph-name="ccedilla" unicode="&#xe7;" horiz-adv-x="444" 
d="M376 114l9 -8q-97 -118 -214 -118h-3l-29 -38q41 -2 69 -19.5t28 -43.5q0 -45 -43 -70t-98 -25q-51 0 -91 13l5 13q34 -9 56 -9q51 0 81.5 18.5t30.5 46.5q0 25 -28 35q-28 11 -56 11l55 70q-105 14 -105 143q-2 71 38.5 144.5t106 120t131.5 44.5q45 0 72.5 -21.5
t27.5 -54.5q0 -27 -13 -44t-30 -17q-13 0 -21.5 8.5t-8.5 21.5q0 18 16 31q16 15 16 24q0 15 -14 25t-38 10q-63 0 -121 -50q-57 -49 -87 -114q-46 -100 -21.5 -170t111.5 -70q81 0 168 93z" />
    <glyph glyph-name="egrave" unicode="&#xe8;" horiz-adv-x="425" 
d="M366 113l8 -10q-116 -115 -222 -115q-52 0 -88 41.5t-36 104.5q-3 68 40 142t110 121.5t128 44.5q91 0 91 -71q0 -51 -49 -91q-89 -75 -271 -94q-5 -33 -5 -43q0 -56 29.5 -86.5t83.5 -30.5q43 0 84.5 21t96.5 66zM81 203q128 14 198 61q71 50 71 107q0 25 -15 39.5
t-40 14.5q-74 0 -138 -76q-64 -74 -76 -146zM180 684h81l61 -167h-11z" />
    <glyph glyph-name="eacute" unicode="&#xe9;" horiz-adv-x="425" 
d="M366 113l8 -10q-116 -115 -222 -115q-52 0 -88 41.5t-36 104.5q-3 68 40 142t110 121.5t128 44.5q91 0 91 -71q0 -51 -49 -91q-89 -75 -271 -94q-5 -33 -5 -43q0 -56 29.5 -86.5t83.5 -30.5q43 0 84.5 21t96.5 66zM81 203q128 14 198 61q71 50 71 107q0 25 -15 39.5
t-40 14.5q-74 0 -138 -76q-64 -74 -76 -146zM384 684h81l-134 -167h-11z" />
    <glyph glyph-name="ecircumflex" unicode="&#xea;" horiz-adv-x="425" 
d="M366 113l8 -10q-116 -115 -222 -115q-52 0 -88 41.5t-36 104.5q-3 68 40 142t110 121.5t128 44.5q91 0 91 -71q0 -51 -49 -91q-89 -75 -271 -94q-5 -33 -5 -43q0 -56 29.5 -86.5t83.5 -30.5q43 0 84.5 21t96.5 66zM81 203q128 14 198 61q71 50 71 107q0 25 -15 39.5
t-40 14.5q-74 0 -138 -76q-64 -74 -76 -146zM362 675h53l43 -152h-10l-74 111l-159 -111h-15z" />
    <glyph glyph-name="edieresis" unicode="&#xeb;" horiz-adv-x="425" 
d="M366 113l8 -10q-116 -115 -222 -115q-52 0 -88 41.5t-36 104.5q-3 68 40 142t110 121.5t128 44.5q91 0 91 -71q0 -51 -49 -91q-89 -75 -271 -94q-5 -33 -5 -43q0 -56 29.5 -86.5t83.5 -30.5q43 0 84.5 21t96.5 66zM81 203q128 14 198 61q71 50 71 107q0 25 -15 39.5
t-40 14.5q-74 0 -138 -76q-64 -74 -76 -146zM235 587q0 14 10 24.5t25 10.5t25 -10.5t10 -24.5q0 -13 -10 -24t-25 -11t-25 11t-10 24zM438 552q-15 0 -25 11t-10 24q0 23 21.5 32t37.5 -8q17 -16 8 -37.5t-32 -21.5z" />
    <glyph glyph-name="igrave" unicode="&#xec;" horiz-adv-x="278" 
d="M203 442h2l-102 -366q-7 -20 -7 -35q0 -16 17 -16q34 0 97 82l10 -7q-27 -41 -65 -77q-38 -35 -70 -35q-34 0 -34 43q0 15 15 71l52 189q22 78 22 85q0 16 -9.5 23t-35.5 7l-32 -3v13zM43 684h81l61 -167h-11z" />
    <glyph glyph-name="iacute" unicode="&#xed;" horiz-adv-x="278" 
d="M203 442h2l-102 -366q-7 -20 -7 -35q0 -16 17 -16q34 0 97 82l10 -7q-27 -41 -65 -77q-38 -35 -70 -35q-34 0 -34 43q0 15 15 71l52 189q22 78 22 85q0 16 -9.5 23t-35.5 7l-32 -3v13zM252 684h81l-134 -167h-11z" />
    <glyph glyph-name="icircumflex" unicode="&#xee;" horiz-adv-x="278" 
d="M203 442h2l-102 -366q-7 -20 -7 -35q0 -16 17 -16q34 0 97 82l10 -7q-27 -41 -65 -77q-38 -35 -70 -35q-34 0 -34 43q0 15 15 71l52 189q22 78 22 85q0 16 -9.5 23t-35.5 7l-32 -3v13zM212 675h53l43 -152h-10l-74 111l-159 -111h-15z" />
    <glyph glyph-name="idieresis" unicode="&#xef;" horiz-adv-x="278" 
d="M203 442h2l-102 -366q-7 -20 -7 -35q0 -16 17 -16q34 0 97 82l10 -7q-27 -41 -65 -77q-38 -35 -70 -35q-34 0 -34 43q0 15 15 71l52 189q22 78 22 85q0 16 -9.5 23t-35.5 7l-32 -3v13zM78 587q0 14 10 24.5t25 10.5t25 -10.5t10 -24.5q0 -13 -10 -24t-25 -11t-25 11
t-10 24zM281 552q-15 0 -25 11t-10 24q0 23 21.5 32t37.5 -8q17 -16 8 -37.5t-32 -21.5z" />
    <glyph glyph-name="eth" unicode="&#xf0;" horiz-adv-x="497" 
d="M344 587l-115 -63l-7 14l115 63q-13 28 -55 83l8 5q34 -28 67 -77l114 60l7 -14l-112 -61q74 -124 74 -279q0 -72 -32 -150q-31 -74 -94 -128q-61 -52 -133 -52q-63 0 -100.5 42t-37.5 108q0 109 83 207q84 97 180 97q50 0 82 -45h2q0 105 -46 190zM187 4q75 0 142 99
q67 100 67 219q0 41 -26 72.5t-67 31.5q-57 0 -108 -56q-50 -55 -79 -127q-27 -72 -27 -132q0 -48 27.5 -77.5t70.5 -29.5z" />
    <glyph glyph-name="ntilde" unicode="&#xf1;" horiz-adv-x="494" 
d="M199 442h2l-71 -247l2 -2q50 85 113 159q74 90 137 90q21 0 35 -15.5t14 -39.5q0 -20 -8 -47l-10 -33q-14 -43 -36 -117q-38 -126 -38 -150q0 -15 15 -15q33 0 87 80l10 -7q-25 -42 -61 -75q-38 -35 -62 -35q-34 0 -34 41q0 24 45 178l16 54t14 48q17 54 17 65
q0 33 -29 33q-53 0 -143 -121q-89 -119 -118 -210l-24 -76h-42l84 292q22 78 22 84q0 30 -45 30q-6 0 -17 -1t-13 -1l-2 -1v13zM191 536h-9q-2 119 81 119q35 0 91 -37q50 -32 73 -32q37 0 49 78h9q1 -57 -17 -86t-64 -29q-34 0 -88 36q-49 33 -76 33q-37 0 -49 -82z" />
    <glyph glyph-name="ograve" unicode="&#xf2;" horiz-adv-x="482" 
d="M165 -12q-62 0 -99.5 42t-37.5 109q0 114 84 208q84 95 186 95q56 0 92 -41.5t36 -110.5q0 -112 -81 -207t-180 -95zM171 4q81 0 145 103t64 216q0 50 -24 76.5t-66 26.5q-54 0 -107 -53q-52 -53 -80 -126q-29 -75 -29 -137q0 -46 26.5 -76t70.5 -30zM179 684h81l61 -167
h-11z" />
    <glyph glyph-name="oacute" unicode="&#xf3;" horiz-adv-x="482" 
d="M165 -12q-62 0 -99.5 42t-37.5 109q0 114 84 208q84 95 186 95q56 0 92 -41.5t36 -110.5q0 -112 -81 -207t-180 -95zM171 4q81 0 145 103t64 216q0 50 -24 76.5t-66 26.5q-54 0 -107 -53q-52 -53 -80 -126q-29 -75 -29 -137q0 -46 26.5 -76t70.5 -30zM383 684h81
l-134 -167h-11z" />
    <glyph glyph-name="ocircumflex" unicode="&#xf4;" horiz-adv-x="482" 
d="M165 -12q-62 0 -99.5 42t-37.5 109q0 114 84 208q84 95 186 95q56 0 92 -41.5t36 -110.5q0 -112 -81 -207t-180 -95zM171 4q81 0 145 103t64 216q0 50 -24 76.5t-66 26.5q-54 0 -107 -53q-52 -53 -80 -126q-29 -75 -29 -137q0 -46 26.5 -76t70.5 -30zM349 675h53l43 -152
h-10l-74 111l-159 -111h-15z" />
    <glyph glyph-name="otilde" unicode="&#xf5;" horiz-adv-x="482" 
d="M165 -12q-62 0 -99.5 42t-37.5 109q0 114 84 208q84 95 186 95q56 0 92 -41.5t36 -110.5q0 -112 -81 -207t-180 -95zM171 4q81 0 145 103t64 216q0 50 -24 76.5t-66 26.5q-54 0 -107 -53q-52 -53 -80 -126q-29 -75 -29 -137q0 -46 26.5 -76t70.5 -30zM183 536h-9
q-2 119 81 119q35 0 91 -37q50 -32 73 -32q37 0 49 78h9q1 -57 -17 -86t-64 -29q-34 0 -88 36q-49 33 -76 33q-37 0 -49 -82z" />
    <glyph glyph-name="odieresis" unicode="&#xf6;" horiz-adv-x="482" 
d="M165 -12q-62 0 -99.5 42t-37.5 109q0 114 84 208q84 95 186 95q56 0 92 -41.5t36 -110.5q0 -112 -81 -207t-180 -95zM171 4q81 0 145 103t64 216q0 50 -24 76.5t-66 26.5q-54 0 -107 -53q-52 -53 -80 -126q-29 -75 -29 -137q0 -46 26.5 -76t70.5 -30zM223 587
q0 14 10 24.5t25 10.5t25 -10.5t10 -24.5q0 -13 -10 -24t-25 -11t-25 11t-10 24zM426 552q-15 0 -25 11t-10 24q0 23 21.5 32t37.5 -8q17 -16 8 -37.5t-32 -21.5z" />
    <glyph glyph-name="divide" unicode="&#xf7;" horiz-adv-x="706" 
d="M638 344v-24h-525v24h525zM397 160q-18 -20 -40 -2q-21 17 -11 36q2 5 7 9q9 9 22 9t22 -9q9 -8 9 -21t-9 -22zM397 460q-21 -21 -43 1t-1 43t43 -1t1 -43z" />
    <glyph glyph-name="oslash" unicode="&#xf8;" 
d="M393 323l-4 36l-291 -302q24 -53 86 -53q78 0 145 103t64 216zM92 74l291 303q-19 49 -76 49t-110 -53t-81 -125q-29 -75 -29 -138q0 -14 5 -36zM471 468l11 -11l-68 -71q25 -37 25 -96q0 -112 -80 -207t-179 -95q-65 0 -104 46l-63 -66l-11 12l64 67q-25 37 -25 92
q0 112 83 207q82 96 189 96q55 0 91 -43z" />
    <glyph glyph-name="ugrave" unicode="&#xf9;" horiz-adv-x="494" 
d="M409 431l45 10l-84 -291q-25 -81 -25 -109q0 -16 16 -16q31 0 85 79l10 -6q-25 -41 -60 -76q-34 -34 -67 -34q-29 0 -29 34q0 47 55 215l-2 2q-40 -78 -106 -157q-35 -42 -75.5 -68t-75.5 -26q-21 0 -34 15.5t-13 38.5q0 13 5 36q4 20 15 53l12 37l39 135q19 56 19 81
q0 19 -15 19q-18 0 -45 -27q-25 -23 -43 -50l-9 6q23 36 58 73q37 37 69 37t32 -40q0 -20 -51 -200q-4 -15 -17 -54q-24 -75 -24 -92q0 -33 29 -33q50 0 141 109q94 110 131 255zM163 684h81l61 -167h-11z" />
    <glyph glyph-name="uacute" unicode="&#xfa;" horiz-adv-x="494" 
d="M409 431l45 10l-84 -291q-25 -81 -25 -109q0 -16 16 -16q31 0 85 79l10 -6q-25 -41 -60 -76q-34 -34 -67 -34q-29 0 -29 34q0 47 55 215l-2 2q-40 -78 -106 -157q-35 -42 -75.5 -68t-75.5 -26q-21 0 -34 15.5t-13 38.5q0 13 5 36q4 20 15 53l12 37l39 135q19 56 19 81
q0 19 -15 19q-18 0 -45 -27q-25 -23 -43 -50l-9 6q23 36 58 73q37 37 69 37t32 -40q0 -20 -51 -200q-4 -15 -17 -54q-24 -75 -24 -92q0 -33 29 -33q50 0 141 109q94 110 131 255zM386 684h81l-134 -167h-11z" />
    <glyph glyph-name="ucircumflex" unicode="&#xfb;" horiz-adv-x="494" 
d="M409 431l45 10l-84 -291q-25 -81 -25 -109q0 -16 16 -16q31 0 85 79l10 -6q-25 -41 -60 -76q-34 -34 -67 -34q-29 0 -29 34q0 47 55 215l-2 2q-40 -78 -106 -157q-35 -42 -75.5 -68t-75.5 -26q-21 0 -34 15.5t-13 38.5q0 13 5 36q4 20 15 53l12 37l39 135q19 56 19 81
q0 19 -15 19q-18 0 -45 -27q-25 -23 -43 -50l-9 6q23 36 58 73q37 37 69 37t32 -40q0 -20 -51 -200q-4 -15 -17 -54q-24 -75 -24 -92q0 -33 29 -33q50 0 141 109q94 110 131 255zM343 675h53l43 -152h-10l-74 111l-159 -111h-15z" />
    <glyph glyph-name="udieresis" unicode="&#xfc;" horiz-adv-x="494" 
d="M409 431l45 10l-84 -291q-25 -81 -25 -109q0 -16 16 -16q31 0 85 79l10 -6q-25 -41 -60 -76q-34 -34 -67 -34q-29 0 -29 34q0 47 55 215l-2 2q-40 -78 -106 -157q-35 -42 -75.5 -68t-75.5 -26q-21 0 -34 15.5t-13 38.5q0 13 5 36q4 20 15 53l12 37l39 135q19 56 19 81
q0 19 -15 19q-18 0 -45 -27q-25 -23 -43 -50l-9 6q23 36 58 73q37 37 69 37t32 -40q0 -20 -51 -200q-4 -15 -17 -54q-24 -75 -24 -92q0 -33 29 -33q50 0 141 109q94 110 131 255zM214 587q0 14 10 24.5t25 10.5t25 -10.5t10 -24.5q0 -13 -10 -24t-25 -11t-25 11t-10 24z
M417 552q-15 0 -25 11t-10 24q0 23 21.5 32t37.5 -8q17 -16 8 -37.5t-32 -21.5z" />
    <glyph glyph-name="yacute" unicode="&#xfd;" horiz-adv-x="444" 
d="M23 395l-2 11l126 34q25 -44 34 -138l25 -273q16 23 56 75l57 75l44 62q45 65 45 93q0 8 -8.5 13.5t-18.5 9t-18.5 15t-8.5 29.5q0 17 11 29t27 12q20 0 32.5 -19t12.5 -44q0 -54 -54 -135q-53 -80 -185 -245q-96 -121 -147 -168q-50 -47 -89 -47q-12 0 -21.5 10.5
t-9.5 25.5q0 16 13 30.5t28 14.5q17 0 24 -19t13 -19q17 0 67 51q45 45 88 103l-27 307q-5 60 -19 85t-44 25zM334 684h81l-134 -167h-11z" />
    <glyph glyph-name="thorn" unicode="&#xfe;" horiz-adv-x="498" 
d="M280 694h2l-109 -374l2 -2q82 124 186 124q42 0 65.5 -33.5t23.5 -89.5q0 -71 -37 -146q-35 -74 -101 -131q-65 -54 -134 -54q-43 0 -90 34l-37 -131q-12 -41 -12 -58q0 -25 25 -29q17 -4 44 -4h6l-4 -13h-216l4 13q52 0 71 15q19 13 34 65l190 663q23 84 23 89
q0 26 -44 26q-20 0 -37 -4v14zM131 175l-36 -127q15 -18 42.5 -30.5t52.5 -12.5q72 0 143 101t71 210q0 95 -70 95q-45 0 -99 -46q-66 -54 -104 -190z" />
    <glyph glyph-name="ydieresis" unicode="&#xff;" horiz-adv-x="444" 
d="M23 395l-2 11l126 34q25 -44 34 -138l25 -273q16 23 56 75l57 75l44 62q45 65 45 93q0 8 -8.5 13.5t-18.5 9t-18.5 15t-8.5 29.5q0 17 11 29t27 12q20 0 32.5 -19t12.5 -44q0 -54 -54 -135q-53 -80 -185 -245q-96 -121 -147 -168q-50 -47 -89 -47q-12 0 -21.5 10.5
t-9.5 25.5q0 16 13 30.5t28 14.5q17 0 24 -19t13 -19q17 0 67 51q45 45 88 103l-27 307q-5 60 -19 85t-44 25zM167 587q0 14 10 24.5t25 10.5t25 -10.5t10 -24.5q0 -13 -10 -24t-25 -11t-25 11t-10 24zM370 552q-15 0 -25 11t-10 24q0 23 21.5 32t37.5 -8q17 -16 8 -37.5
t-32 -21.5z" />
    <glyph glyph-name="dotlessi" unicode="&#x131;" horiz-adv-x="278" 
d="M203 442h2l-102 -366q-7 -20 -7 -35q0 -16 17 -16q34 0 97 82l10 -7q-27 -41 -65 -77q-38 -35 -70 -35q-34 0 -34 43q0 15 15 71l52 189q22 78 22 85q0 16 -9.5 23t-35.5 7l-32 -3v13z" />
    <glyph glyph-name="Lslash" unicode="&#x141;" horiz-adv-x="556" 
d="M161 292l-144 -103l11 33l142 102l54 190q25 84 12 109.5t-80 25.5l4 13h250l-4 -13q-54 0 -81 -19t-41 -67l-56 -197l163 117l-9 -32l-163 -117l-57 -200q-14 -51 -14 -71q0 -21 17.5 -28t76.5 -7q124 0 173 27q49 28 97 131h12l-63 -186h-478l4 13q54 0 79.5 18.5
t38.5 63.5z" />
    <glyph glyph-name="lslash" unicode="&#x142;" horiz-adv-x="278" 
d="M188 368l96 60l-6 -25l-97 -60l-75 -268q-7 -22 -7 -34q0 -16 17 -16q36 0 97 82l10 -7q-25 -38 -65 -76q-38 -36 -70 -36q-34 0 -34 43q0 15 15 71l58 207l-104 -66l10 28l101 63l59 209q21 75 21 85q0 30 -45 30q-2 0 -32 -3v13l139 26h3z" />
    <glyph glyph-name="OE" unicode="&#x152;" horiz-adv-x="949" 
d="M486 156l103 364q13 48 13 61q0 64 -121 64q-97 0 -182 -65t-131 -168q-46 -102 -46 -216q0 -94 46 -136.5t141 -42.5q85 0 119 26t58 113zM696 335h-114l-57 -203q-16 -54 -16 -73q0 -20 17.5 -27.5t62.5 -7.5q93 0 140 12q48 14 79 43q31 31 73 103h10l-62 -182h-337
q-26 0 -134 -3q-68 -4 -86 -4q-49 0 -87 15t-60.5 37.5t-37 53.5t-19.5 59t-5 58q0 80 35 164q36 83 92 145q58 65 133.5 103.5t148.5 38.5q12 0 78 -2q40 -3 102 -3h324l-43 -157h-12q13 68 -15.5 100.5t-100.5 32.5h-137l-79 -279h84q75 0 107 18q31 19 58 82h12l-68 -241
h-12q12 63 -4.5 90t-69.5 27z" />
    <glyph glyph-name="oe" unicode="&#x153;" horiz-adv-x="652" 
d="M595 113l8 -10q-38 -46 -90 -80q-53 -35 -104 -35q-38 0 -62.5 28t-28.5 71q-34 -44 -78 -71.5t-86 -27.5q-54 0 -86 37t-32 103q0 71 37 144q38 74 95 122q58 48 112 48q50 0 78 -27t31 -74q83 101 170 101q30 0 48 -17.5t18 -51.5q0 -50 -47 -94q-86 -80 -212 -93
q-4 -23 -4 -45q0 -49 24.5 -79t68.5 -30q23 0 48 13t42 27q48 39 50 41zM80 87q0 -39 20 -61t57 -22q47 0 94 68q46 69 72 146q26 80 26 120q0 87 -63 87q-41 0 -90 -52q-47 -50 -82 -132q-34 -78 -34 -154zM368 199q68 9 141 60q74 53 74 114q0 50 -43 50q-39 0 -93 -59
q-53 -58 -79 -165z" />
    <glyph glyph-name="Scaron" unicode="&#x160;" 
d="M21 -15h-12l55 246h12q-19 -96 22 -160q40 -63 134 -63q65 0 107 42q43 43 43 108q0 68 -79 142l-24 23l-26.5 25.5l-23.5 24.5t-23.5 27.5l-18.5 26.5t-17 30t-9 29.5t-4 32.5q0 62 48 110t117 48q46 0 95 -21q51 -21 56 -21q32 0 53 42h12l-50 -220h-12q19 80 -23 139
q-40 58 -127 58q-57 0 -92.5 -34t-35.5 -84q0 -63 80 -138q79 -70 106 -105q43 -56 43 -112q0 -83 -54 -140q-53 -56 -136 -56q-47 0 -99 21q-51 21 -68 21q-32 0 -49 -42zM369 698h-53l-45 152h10l75 -111l161 111h12z" />
    <glyph glyph-name="scaron" unicode="&#x161;" horiz-adv-x="391" 
d="M346 442h9l-30 -150h-9q1 56 -25.5 94.5t-72.5 38.5q-36 0 -58 -19.5t-22 -49.5q0 -43 70 -115q30 -29 50.5 -65t20.5 -66q0 -55 -39 -88.5t-95 -33.5q-36 0 -69 13q-34 14 -38 14q-25 0 -37 -27h-11l30 159h10q0 -144 112 -144q42 0 69 23t27 59q0 57 -69 126
q-68 74 -68 125q0 46 30.5 76t77.5 30q29 0 62 -14t40 -14q22 0 35 28zM253 523h-53l-45 152h10l75 -111l161 111h12z" />
    <glyph glyph-name="Ydieresis" unicode="&#x178;" horiz-adv-x="581" 
d="M307 520l53 -177l141 177q59 76 59 101q0 28 -69 28l4 13h194l-5 -13q-35 0 -63 -22q-28 -23 -73 -80l-183 -232l-51 -181q-14 -48 -14 -71q0 -27 21 -38.5t70 -11.5l-4 -13h-263l4 13q60 0 87.5 17.5t41.5 65.5l66 232l-75 241q-13 42 -35.5 61t-61.5 19l3 13h231
l-4 -13q-48 0 -70 -11t-22 -38q0 -22 18 -80zM349 771q0 14 10 24.5t25 10.5t25 -10.5t10 -24.5q0 -13 -10 -24t-25 -11t-25 11t-10 24zM552 736q-15 0 -25 11t-10 24q0 23 21.5 32t37.5 -8q17 -16 8 -37.5t-32 -21.5z" />
    <glyph glyph-name="Zcaron" unicode="&#x17d;" horiz-adv-x="551" 
d="M114 514l47 148h437v-14l-522 -624h105q108 0 169 13q55 12 89.5 42.5t63.5 92.5h13l-56 -172h-457v10l531 628h-171q-82 0 -141 -20q-68 -23 -96 -104h-12zM401 698h-53l-45 152h10l75 -111l161 111h12z" />
    <glyph glyph-name="zcaron" unicode="&#x17e;" horiz-adv-x="389" 
d="M55 325l33 105h302v-10l-354 -375h149q55 0 82 13t47 64h11l-41 -122h-309v10l359 377h-170q-44 0 -61 -11q-16 -10 -37 -51h-11zM270 523h-53l-45 152h10l75 -111l161 111h12z" />
    <glyph glyph-name="florin" unicode="&#x192;" 
d="M269 411h-93l6 20q56 0 76 16q21 16 39 74l9 28q6 21 24 65q12 27 37 56q23 24 57 24q27 0 46 -15.5t19 -39.5q0 -15 -8 -24.5t-22 -9.5q-12 0 -20 6.5t-8 17.5q0 5 5.5 15.5t5.5 13.5q0 18 -20 18q-35 0 -52 -47q-16 -47 -51 -198h108l-5 -20h-106l-39 -151l-33 -137
l-30 -113q-26 -100 -64 -165q-35 -61 -94 -61q-24 0 -38.5 13t-14.5 37q0 15 11 27.5t23 12.5q27 0 27 -24q0 -7 -7.5 -18.5t-7.5 -14.5q0 -15 19 -15q61 0 91 137q71 328 110 472z" />
    <glyph glyph-name="circumflex" unicode="&#x2c6;" horiz-adv-x="333" 
d="M287 664h53l43 -152h-10l-74 111l-159 -111h-15z" />
    <glyph glyph-name="caron" unicode="&#x2c7;" horiz-adv-x="333" 
d="M259 512h-53l-45 152h10l75 -111l161 111h12z" />
    <glyph glyph-name="breve" unicode="&#x2d8;" horiz-adv-x="333" 
d="M409 664h12q-23 -54 -69 -93t-102 -39q-54 0 -81 40q-26 40 -28 92h13q6 -39 34 -63t64 -24q43 0 86.5 25t70.5 62z" />
    <glyph glyph-name="dotaccent" unicode="&#x2d9;" horiz-adv-x="333" 
d="M307 589q0 -14 -10.5 -24.5t-24.5 -10.5t-24.5 10.5t-10.5 24.5q0 21 17.5 30t35 0.5t17.5 -30.5z" />
    <glyph glyph-name="ring" unicode="&#x2da;" horiz-adv-x="333" 
d="M186 584q0 38 27 64.5t64 26.5q39 0 65 -26.5t26 -64.5t-27 -64.5t-64 -26.5q-38 0 -64.5 26t-26.5 65zM209 584q0 -29 20 -49.5t48 -20.5t48 20.5t20 49.5q0 30 -20 50t-48 20q-29 0 -48.5 -20t-19.5 -50z" />
    <glyph glyph-name="ogonek" unicode="&#x2db;" horiz-adv-x="333" 
d="M82 0h16q-17 -32 -17 -54q0 -42 32 -68t80 -26q26 0 61 16l7 -11q-52 -37 -110 -37q-48 0 -77 26t-29 67q0 53 37 87z" />
    <glyph glyph-name="tilde" unicode="&#x2dc;" horiz-adv-x="333" 
d="M111 522h-9q-2 119 81 119q35 0 91 -37q50 -32 73 -32q37 0 49 78h9q1 -57 -17 -86t-64 -29q-34 0 -88 36q-49 33 -76 33q-37 0 -49 -82z" />
    <glyph glyph-name="hungarumlaut" unicode="&#x2dd;" horiz-adv-x="330" 
d="M347 684h81l-133 -167h-12zM221 684h79l-133 -167h-11z" />
    <glyph glyph-name="endash" unicode="&#x2013;" horiz-adv-x="498" 
d="M508 250v-20h-518v20h518z" />
    <glyph glyph-name="emdash" unicode="&#x2014;" horiz-adv-x="889" 
d="M897 250v-20h-907v20h907z" />
    <glyph glyph-name="quoteleft" unicode="&#x2018;" horiz-adv-x="333" 
d="M339 675l4 -11q-21 -9 -49 -37q-25 -25 -25 -51q0 -8 12.5 -25t12.5 -27q2 -26 -24 -34q-27 -8 -42 14q-7 11 -6 28q0 39 35 82q36 43 82 61z" />
    <glyph glyph-name="quoteright" unicode="&#x2019;" horiz-adv-x="333" 
d="M204 490l-4 11q21 9 49 37q25 25 25 51q0 8 -12.5 25t-12.5 27q-2 26 24 34q27 8 42 -14q7 -11 6 -28q0 -39 -36 -83q-35 -42 -81 -60z" />
    <glyph glyph-name="quotesinglbase" unicode="&#x201a;" horiz-adv-x="333" 
d="M30 -123l-5 10q22 10 49 38q26 26 26 51q0 8 -12.5 25t-12.5 27q-2 26 24 34q27 8 42 -14q7 -11 6 -28q0 -40 -36 -82q-34 -43 -81 -61z" />
    <glyph glyph-name="quotedblleft" unicode="&#x201c;" horiz-adv-x="514" 
d="M339 675l4 -11q-21 -9 -49 -37q-25 -25 -25 -51q0 -8 12.5 -25t12.5 -27q2 -26 -24 -34q-27 -8 -42 14q-7 11 -6 28q0 39 35 82q36 43 82 61zM520 675l4 -11q-21 -9 -49 -37q-25 -25 -25 -51q0 -8 12.5 -25t12.5 -27q2 -26 -24 -34q-27 -8 -42 14q-7 11 -6 28q0 39 35 82
q36 43 82 61z" />
    <glyph glyph-name="quotedblright" unicode="&#x201d;" horiz-adv-x="517" 
d="M205 490l-5 10q21 9 49 37q26 28 26 52q0 8 -12.5 25t-12.5 27q-2 26 24 34q27 8 42 -14q7 -11 6 -28q0 -39 -36 -83q-34 -42 -81 -60zM387 490l-5 11q21 9 49 37q26 26 26 51q0 8 -12.5 25t-12.5 27q-2 26 24 34q27 8 42 -14q7 -11 6 -28q0 -39 -36 -83q-34 -42 -81 -60
z" />
    <glyph glyph-name="quotedblbase" unicode="&#x201e;" horiz-adv-x="515" 
d="M30 -123l-5 10q22 10 49 38q26 26 26 51q0 8 -12.5 25t-12.5 27q-2 26 24 34q27 8 42 -14q7 -11 6 -28q0 -40 -36 -82q-34 -43 -81 -61zM212 -123l-5 10q22 10 49 38q26 26 26 51q0 8 -12.5 25t-12.5 27q-2 26 24 34q27 8 42 -14q7 -11 6 -28q0 -40 -36 -82
q-34 -43 -81 -61z" />
    <glyph glyph-name="dagger" unicode="&#x2020;" 
d="M131 -196h-12q128 402 128 538q42 42 66 118q-23 0 -82 -17q-55 -16 -73 -16q-43 0 -43 32q0 13 13 22.5t32 9.5q16 0 74 -11t81 -11q11 39 18 117q9 108 49 108q26 0 26 -31q0 -32 -37 -96q-36 -65 -45 -98q39 0 86 10q52 11 70 11q43 0 43 -31q0 -15 -12.5 -23.5
t-31.5 -8.5q-22 0 -76 16q-57 17 -82 17q-9 -48 -9 -55q0 -37 14 -60q-42 -82 -77 -179q-35 -95 -120 -362z" />
    <glyph glyph-name="daggerdbl" unicode="&#x2021;" horiz-adv-x="497" 
d="M233 161q0 -32 8 -54q-11 -7 -37 -41q-3 -4 -9.5 -18.5t-7.5 -16.5l-7 -19q-6 -15 -7 -16q33 0 81 12t62 12t22.5 -8.5t8.5 -21.5q0 -28 -33 -28q-14 0 -65 12q-52 11 -80 11q-6 -18 -15 -109q-5 -52 -15.5 -72t-30.5 -20q-10 0 -17.5 10t-7.5 22q0 24 34 88q36 67 41 81
q-23 0 -76 -11q-51 -12 -66 -12q-10 0 -20.5 9t-10.5 19q0 13 9.5 21.5t23.5 8.5q12 0 61 -12t84 -12q9 36 9 54q0 32 -14 57q36 23 64 92q29 70 29 118q0 32 -8 54q35 23 66 102l3 8q-33 0 -81 -12q-50 -11 -62 -11q-14 0 -23 9t-9 21q0 13 9.5 22t23.5 9q13 0 64 -14
q49 -13 81 -13q15 50 15 110q0 92 46 92q24 0 24 -31q0 -23 -35 -90q-35 -65 -39 -81q27 0 75 13q51 14 66 14q14 0 23 -9t9 -22q0 -14 -9.5 -22.5t-23.5 -8.5t-62 12t-82 12q-10 -39 -10 -53q0 -32 14 -57q-35 -25 -64 -92q-28 -66 -29 -118z" />
    <glyph glyph-name="bullet" unicode="&#x2022;" horiz-adv-x="350" 
d="M88 331q0 45 32 77q32 33 78 33t77 -33q33 -32 33 -77q0 -47 -33 -78q-32 -32 -77 -32q-46 0 -78 32t-32 78z" />
    <glyph glyph-name="ellipsis" unicode="&#x2026;" horiz-adv-x="889" 
d="M102 -12q-23 -1 -32 17.5t0.5 37t31.5 17.5q15 0 25.5 -10.5t10.5 -25.5t-10.5 -25.5t-25.5 -10.5zM397 -12q-23 -1 -32 17.5t0.5 37t31.5 17.5q15 0 25.5 -10.5t10.5 -25.5t-10.5 -25.5t-25.5 -10.5zM695 -12q-23 -1 -32 17.5t0.5 37t31.5 17.5q15 0 25.5 -10.5
t10.5 -25.5t-10.5 -25.5t-25.5 -10.5z" />
    <glyph glyph-name="perthousand" unicode="&#x2030;" horiz-adv-x="938" 
d="M832 342q46 0 71.5 -32t25.5 -96q0 -86 -55 -156q-54 -70 -115 -70q-47 0 -74 35.5t-27 91.5q-3 74 52 151.5t122 75.5zM836 328q-30 2 -64.5 -42.5t-57 -107.5t-20.5 -110q0 -30 15.5 -48t42.5 -18q47 0 94 80q47 82 47 174q0 34 -15 53t-42 19zM505 342q46 0 71.5 -32
t25.5 -96q0 -87 -56 -157q-56 -69 -114 -69q-47 0 -74 35.5t-27 91.5q0 79 52 152q53 75 122 75zM509 328q-49 0 -95 -91q-47 -91 -47 -169q0 -30 15 -48t43 -18q47 0 94 81q47 82 47 173q0 34 -15 53t-42 19zM246 674q43 0 70 -33t27 -95q0 -88 -53 -158q-53 -68 -117 -68
q-47 0 -74 35.5t-27 91.5q0 79 53 153t121 74zM250 660q-49 0 -95 -91q-47 -91 -47 -169q0 -30 15 -48t43 -18q50 0 95 82q46 82 46 172q0 34 -15 53t-42 19zM601 677h28l-537 -692h-28z" />
    <glyph glyph-name="guilsinglleft" unicode="&#x2039;" horiz-adv-x="333" 
d="M294 449h16l-181 -233l69 -231h-11l-116 231z" />
    <glyph glyph-name="guilsinglright" unicode="&#x203a;" horiz-adv-x="333" 
d="M39 -15h-15l178 233l-66 231h10l115 -231z" />
    <glyph glyph-name="fraction" unicode="&#x2044;" horiz-adv-x="167" 
d="M302 678h25l-457 -703h-25z" />
    <glyph glyph-name="Euro" unicode="&#x20ac;" 
d="M161 387h275l-6 -20h-277q-7 -15 -19 -56h280l-5 -20h-281q-19 -72 -19 -121q0 -75 30 -113.5t87 -38.5q53 0 102 27t113 91l8 -7l-48 -51q-21 -20 -52 -42q-63 -47 -151 -47q-69 0 -108.5 49.5t-39.5 135.5q0 47 14 117h-56l6 20h55l2 9q5 20 16 47h-58l7 20h59
q50 109 129 194q89 95 201 95q80 0 149 -42l-41 -147h-10q5 33 5 51q0 58 -25.5 86.5t-83.5 28.5q-77 0 -146 -74q-68 -73 -112 -192z" />
    <glyph glyph-name="trademark" unicode="&#x2122;" horiz-adv-x="968" 
d="M133 565l10 97h342l10 -97h-10q-7 52 -32 66t-82 14h-35v-292q0 -47 10 -60t48 -15v-10h-159v10q36 1 47 14q11 14 11 61v292h-35q-59 0 -83 -15q-24 -14 -32 -65h-10zM537 662h110l153 -324l148 324h93v-11q-34 -1 -46 -16.5t-12 -58.5v-223q0 -48 10 -61q11 -13 48 -14
v-10h-159v10q37 1 47 13q11 14 11 62v237h-2l-149 -322h-9l-161 343h-2v-261q0 -43 11 -57t47 -15v-10h-138v10q37 1 48 14q10 13 10 58v226q0 46 -11 60t-47 15v11z" />
    <glyph glyph-name="minus" unicode="&#x2212;" horiz-adv-x="706" 
d="M638 343v-24h-525v24h525z" />
    <glyph glyph-name="apple" unicode="&#xf8ff;" horiz-adv-x="760" 
d="M486 465v-257q0 -48 9 -62q11 -14 42 -15v-7h-155v7q35 1 47 9t12 30v158h-48l-148 -204h-91v7q22 0 38.5 14t43.5 50l102 136q-49 6 -80.5 36t-31.5 72q0 47 39 77.5t103 30.5h164v-8q-27 -1 -36.5 -15.5t-9.5 -58.5zM432 341h9v188q-21 6 -47 6q-58 0 -89 -28t-31 -76
t37 -69t121 -21zM20 331q0 144 101 245t245 101t245 -102q100 -100 100 -244q0 -145 -101 -246q-100 -100 -244 -100t-245 101q-101 103 -101 245zM366 3q136 0 231 95q94 94 94 233q0 138 -96 233q-94 94 -229 94q-133 0 -230 -94q-96 -93 -96 -233q0 -139 96 -234
q95 -94 230 -94z" />
    <glyph glyph-name="CR.001" horiz-adv-x="333" 
 />
    <glyph glyph-name="zero.onum" horiz-adv-x="518" 
d="M322 492q74 0 117 -50.5t44 -132.5q0 -75 -32 -150q-32 -74 -94 -123q-64 -50 -141 -50q-76 0 -119.5 50t-43.5 132q0 74 31 146q31 73 94 125q65 53 144 53zM319 465q-94 0 -161 -94q-67 -92 -67 -205q0 -75 34 -114t95 -39q93 0 159 90t66 206q0 72 -34.5 114t-91.5 42
z" />
    <glyph glyph-name="one.onum" horiz-adv-x="422" 
d="M283 477h7l-98 -343q-19 -66 -19 -77q0 -44 93 -44l-4 -13h-250l4 13q61 0 86 16t42 74l68 237q9 32 9 47q0 19 -12.5 30t-33.5 11q-13 0 -39 -6l-4 13z" />
    <glyph glyph-name="two.onum" horiz-adv-x="508" 
d="M333 0h-346v14l182 133q90 64 131.5 114t41.5 100q0 38 -25 62t-66 24q-86 0 -151 -95l-10 2q19 55 62 96q42 42 112 42q57 0 90.5 -33t33.5 -78q0 -31 -15 -63q-26 -57 -93 -113q-38 -31 -66 -51l-78 -55l-75 -53h181q58 0 86 17l23 15q5 5 19 22t15 18h13z" />
    <glyph glyph-name="three.onum" horiz-adv-x="491" 
d="M85 180v11q50 4 103 23q52 20 91 56q40 37 40 83q0 98 -97 98q-61 0 -105 -76l-11 3q22 52 61.5 82.5t91.5 30.5q47 0 77.5 -33.5t30.5 -87.5q0 -56 -47 -100q-45 -42 -109 -64v-2q52 -15 83 -56t31 -93q0 -104 -76 -177t-178 -73q-35 0 -68 13q-35 14 -35 41
q0 15 12 25.5t28 10.5q19 0 63 -26q46 -26 81 -26q45 0 81 51q37 50 37 116q0 82 -49 124t-136 46z" />
    <glyph glyph-name="four.onum" horiz-adv-x="482" 
d="M387 492h29l-138 -457h92l-10 -35h-93l-61 -204h-45l61 204h-248l12 41zM342 406l-327 -371h218l112 371h-3z" />
    <glyph glyph-name="five.onum" horiz-adv-x="441" 
d="M66 252l102 227h209l-16 -61l-198 -1l-53 -116q92 -12 141 -61t49 -133q0 -123 -86 -212q-85 -90 -187 -90q-36 0 -62.5 13.5t-26.5 38.5q0 17 11 28.5t27 11.5q23 0 52 -23q30 -24 52 -24q68 0 120 60q53 61 53 140q0 93 -48.5 145t-138.5 57z" />
    <glyph glyph-name="six.onum" horiz-adv-x="499" 
d="M514 674v-10q-90 -17 -176 -91q-87 -73 -134 -160l2 -2q40 21 84 21q67 0 104 -45.5t37 -117.5q0 -118 -71 -200q-70 -81 -145 -81q-74 0 -110 51.5t-36 139.5q0 117 63 230t166 186t216 79zM182 377q-21 -44 -37 -82q-14 -33 -27 -80q-13 -46 -13 -86q0 -59 28 -94
t77 -35q59 0 113 85q55 85 55 197q0 60 -30 94t-85 34q-36 0 -81 -33z" />
    <glyph glyph-name="seven.onum" horiz-adv-x="469" 
d="M57 343l72 136h319v-18l-372 -653l-22 12l342 605h-173q-56 0 -90 -17.5t-60 -64.5h-16z" />
    <glyph glyph-name="eight.onum" horiz-adv-x="492" 
d="M299 370q52 -63 75 -106t23 -83q0 -55 -44 -120q-22 -32 -64 -52.5t-92 -20.5q-74 0 -120 49q-45 49 -45 112q0 67 51.5 123.5t150.5 92.5q-26 29 -39 48q-44 58 -44 106q0 69 48 112q47 43 113 43q64 0 107 -40q44 -39 44 -92q0 -62 -44.5 -106t-119.5 -66zM289 382
q61 18 96 61t35 99q0 55 -30 86.5t-82 31.5q-44 0 -75 -33q-32 -34 -32 -76q0 -29 14 -62q11 -27 25 -48l41 -49q3 -5 8 -10zM245 353q-71 -24 -121 -86q-49 -61 -49 -136q0 -59 35 -93.5t95 -34.5q55 0 99 41q43 42 43 104q0 55 -22 95q-25 45 -80 110z" />
    <glyph glyph-name="nine.onum" horiz-adv-x="510" 
d="M15 -180v15q87 14 177 89t140 162l-2 2q-41 -29 -96 -29q-67 0 -103.5 45.5t-36.5 119.5q0 103 67 192q68 90 155 90q76 0 109 -55q34 -53 34 -135q0 -118 -60 -231q-59 -110 -164 -185q-102 -72 -220 -80zM351 120q70 130 70 240q0 62 -27 97.5t-77 35.5q-61 0 -116 -82
q-54 -81 -54 -200q0 -51 30 -91q31 -40 85 -40q39 0 89 40z" />
    <glyph glyph-name="zero.tnum" 
d="M212 -12q-64 0 -98.5 53t-34.5 156q0 119 41 233q40 110 103 178q63 66 126 66q54 0 89.5 -56.5t35.5 -159.5q0 -126 -43 -237q-42 -109 -101.5 -171t-117.5 -62zM212 3q46 0 90 63q45 67 71 152q26 86 43 173q17 88 17 136q0 60 -23.5 96t-63.5 36q-61 0 -117 -98
q-53 -96 -82 -219q-28 -119 -28 -218q0 -55 24.5 -88t68.5 -33z" />
    <glyph glyph-name="one.tnum" 
d="M387 674h12l-153 -538q-19 -66 -19 -79q0 -44 91 -44l-3 -13h-252l3 13q59 0 85 17q27 17 43 75l124 432q9 31 9 47q0 39 -46 39q-13 0 -38 -5l-4 13z" />
    <glyph glyph-name="two.tnum" 
d="M389 124l-50 -124h-318v15l226 217q160 154 160 251q0 63 -35.5 101t-92.5 38q-38 0 -71 -22.5t-54 -60.5l-9 5q24 59 69 94.5t102 35.5q56 0 96 -46q41 -46 41 -107q0 -62 -32 -121q-31 -56 -72 -94l-262 -253h158q53 0 82.5 15t49.5 56h12z" />
    <glyph glyph-name="three.tnum" 
d="M153 363v11q50 4 103 23q52 20 91 56q40 37 40 83q0 98 -97 98q-61 0 -105 -76l-11 3q22 52 61.5 82.5t91.5 30.5q47 0 77.5 -33.5t30.5 -87.5q0 -56 -47 -100q-45 -42 -109 -64v-2q52 -15 83 -56t31 -93q0 -104 -76 -177t-178 -73q-35 0 -68 13q-35 14 -35 41
q0 15 12 25.5t28 10.5q19 0 63 -26q46 -26 81 -26q45 0 81 51q37 50 37 116q0 82 -49 124t-136 46z" />
    <glyph glyph-name="four.tnum" 
d="M449 662h26l-134 -448h91l-10 -35h-92l-57 -191h-46l58 191h-249l12 41zM402 575l-327 -361h220l110 361h-3z" />
    <glyph glyph-name="five.tnum" 
d="M165 435l102 227h209l-16 -61l-198 -1l-53 -116q92 -12 141 -61t49 -133q0 -122 -86 -213q-86 -89 -187 -89q-36 0 -62.5 13.5t-26.5 38.5q0 17 11 28.5t27 11.5q24 0 52 -24q31 -23 52 -23q67 0 120 60q53 61 53 140q0 93 -48.5 145t-138.5 57z" />
    <glyph glyph-name="six.tnum" 
d="M525 674v-10q-90 -17 -176 -91q-87 -73 -134 -160l2 -2q41 21 84 21q67 0 104 -45.5t37 -117.5q0 -118 -71 -200q-71 -81 -145 -81t-110 51.5t-36 139.5q0 117 63 230t166 186t216 79zM193 377q-21 -44 -37 -82q-14 -33 -27 -80q-13 -46 -13 -86q0 -59 28 -94t77 -35
q59 0 113 85q55 85 55 197q0 60 -30 94t-85 34q-36 0 -81 -33z" />
    <glyph glyph-name="seven.tnum" 
d="M128 526l71 136h319v-18l-372 -655l-22 13l344 606h-175q-56 0 -90 -17.5t-60 -64.5h-15z" />
    <glyph glyph-name="eight.tnum" 
d="M317 370q52 -63 75 -106t23 -83q0 -55 -44 -120q-22 -32 -64 -52.5t-92 -20.5q-74 0 -120 49q-45 49 -45 112q0 67 51.5 123.5t150.5 92.5q-26 29 -39 48q-44 58 -44 106q0 69 48 112q47 43 113 43q64 0 107 -40q44 -39 44 -92q0 -62 -44.5 -106t-119.5 -66zM307 382
q61 18 96 61t35 99q0 55 -30 86.5t-82 31.5q-44 0 -75 -33q-32 -34 -32 -76q0 -29 14 -62q11 -27 25 -48l41 -49q3 -5 8 -10zM263 353q-71 -24 -121 -86q-49 -61 -49 -136q0 -59 35 -93.5t95 -34.5q55 0 99 41q43 42 43 104q0 55 -22 95q-25 45 -80 110z" />
    <glyph glyph-name="nine.tnum" 
d="M30 -12v15q87 14 177 89t140 162l-2 2q-41 -29 -96 -29q-67 0 -103.5 45.5t-36.5 119.5q0 103 67 192q68 90 155 90q76 0 109 -55q34 -53 34 -135q0 -118 -60 -231q-59 -110 -164 -185q-102 -72 -220 -80zM366 288q70 130 70 240q0 62 -27 97.5t-77 35.5q-61 0 -116 -82
q-54 -81 -54 -200q0 -51 30 -91q31 -40 85 -40q39 0 89 40z" />
    </font>
</defs>
</svg>
